<?xml version="1.0" encoding="UTF-8" ?>
<!DOCTYPE svg PUBLIC "-//W3C//DTD SVG 1.1//EN" "http://www.w3.org/Graphics/SVG/1.1/DTD/svg11.dtd">
<svg width="512pt" height="512pt" viewBox="0 0 512 512" version="1.1" xmlns="http://www.w3.org/2000/svg">
<path fill="#fffdfd" d=" M 0.00 0.00 L 133.34 0.00 C 123.10 1.48 112.87 3.56 103.17 7.23 C 82.10 15.61 63.62 29.86 49.01 47.09 C 20.70 80.30 6.53 123.84 4.49 167.03 C 4.75 179.30 3.82 191.63 5.30 203.84 C 6.49 220.45 9.88 236.80 13.59 253.00 C 20.35 280.05 30.47 306.39 45.06 330.21 C 88.71 308.32 140.38 299.85 187.93 313.14 C 225.82 323.85 259.78 346.08 287.45 373.79 C 289.68 373.24 290.84 370.90 292.45 369.44 C 305.95 354.65 316.29 337.17 323.55 318.55 C 332.01 297.04 336.23 274.03 337.68 251.03 C 337.70 240.00 337.98 228.96 337.49 217.95 C 334.48 179.96 325.53 142.24 309.43 107.62 C 297.21 81.58 280.22 57.56 258.44 38.65 C 239.90 22.64 217.89 10.46 194.15 4.21 C 187.35 2.54 180.50 1.00 173.56 0.00 L 350.60 0.00 C 387.15 29.91 414.86 70.20 430.49 114.72 C 437.85 135.11 442.60 156.41 445.12 177.93 C 447.16 194.86 446.86 211.96 446.50 228.98 C 444.17 269.22 432.26 308.97 411.56 343.60 C 392.14 376.46 364.83 404.34 333.32 425.75 C 348.33 439.06 364.66 451.76 383.83 458.41 C 397.34 463.33 412.69 462.81 425.81 456.90 C 433.75 453.50 440.29 447.10 444.28 439.47 C 450.37 426.43 450.26 411.30 447.17 397.48 C 454.24 393.46 461.41 389.62 468.35 385.36 C 476.80 404.84 481.98 425.82 483.25 447.04 C 483.74 462.35 482.08 478.21 475.09 492.06 C 471.53 499.58 466.43 506.32 460.37 512.00 L 297.70 512.00 C 285.05 500.76 274.10 487.77 262.97 475.08 C 259.54 471.03 256.06 467.03 252.85 462.82 C 227.80 469.78 201.97 474.14 175.94 474.66 C 168.96 475.26 161.94 475.46 154.96 474.72 C 109.59 473.56 63.95 461.79 25.35 437.52 C 16.45 432.07 8.11 425.75 0.00 419.21 L 0.00 0.00 Z" />
<path fill="#ff0101" d=" M 133.34 0.00 L 173.56 0.00 C 180.50 1.00 187.35 2.54 194.15 4.21 C 217.89 10.46 239.90 22.64 258.44 38.65 C 280.22 57.56 297.21 81.58 309.43 107.62 C 325.53 142.24 334.48 179.96 337.49 217.95 C 337.98 228.96 337.70 240.00 337.68 251.03 C 336.23 274.03 332.01 297.04 323.55 318.55 C 316.29 337.17 305.95 354.65 292.45 369.44 C 290.84 370.90 289.68 373.24 287.45 373.79 C 259.78 346.08 225.82 323.85 187.93 313.14 C 140.38 299.85 88.71 308.32 45.06 330.21 C 30.47 306.39 20.35 280.05 13.59 253.00 C 9.88 236.80 6.49 220.45 5.30 203.84 C 3.82 191.63 4.75 179.30 4.49 167.03 C 6.53 123.84 20.70 80.30 49.01 47.09 C 63.62 29.86 82.10 15.61 103.17 7.23 C 112.87 3.56 123.10 1.48 133.34 0.00 Z" />
<path fill="#ff0101" d=" M 350.60 0.00 L 512.00 0.00 L 512.00 512.00 L 460.37 512.00 C 466.43 506.32 471.53 499.58 475.09 492.06 C 482.08 478.21 483.74 462.35 483.25 447.04 C 481.98 425.82 476.80 404.84 468.35 385.36 C 461.41 389.62 454.24 393.46 447.17 397.48 C 450.26 411.30 450.37 426.43 444.28 439.47 C 440.29 447.10 433.75 453.50 425.81 456.90 C 412.69 462.81 397.34 463.33 383.83 458.41 C 364.66 451.76 348.33 439.06 333.32 425.75 C 364.83 404.34 392.14 376.46 411.56 343.60 C 432.26 308.97 444.17 269.22 446.50 228.98 C 446.86 211.96 447.16 194.86 445.12 177.93 C 442.60 156.41 437.85 135.11 430.49 114.72 C 414.86 70.20 387.15 29.91 350.60 0.00 Z" />
<path fill="#ff0101" d=" M 88.85 349.82 C 109.40 347.96 130.23 352.92 148.32 362.66 C 167.39 372.66 183.55 387.22 198.69 402.34 C 201.50 405.29 204.70 407.89 207.12 411.20 C 206.11 411.44 204.08 411.92 203.06 412.16 C 189.36 412.92 175.58 413.04 161.97 411.14 C 125.47 405.59 91.39 386.66 66.89 359.14 C 65.67 357.95 64.59 356.63 63.93 355.05 C 72.10 352.73 80.37 350.68 88.85 349.82 Z" />
<path fill="#ff0101" d=" M 0.00 419.21 C 8.11 425.75 16.45 432.07 25.35 437.52 C 63.95 461.79 109.59 473.56 154.96 474.72 C 161.94 475.46 168.96 475.26 175.94 474.66 C 201.97 474.14 227.80 469.78 252.85 462.82 C 256.06 467.03 259.54 471.03 262.97 475.08 C 274.10 487.77 285.05 500.76 297.70 512.00 L 0.00 512.00 L 0.00 419.21 Z" />
</svg>
