/* XPM */
static const char *open_xpm[] = {
/* columns rows colors chars-per-pixel */
"16 16 56 1",
"4 c #CAC7C1",
"> c #F8A83A",
"; c #E19D68",
"y c #F7922A",
"0 c #E88014",
"f c #F79232",
"& c #A5A5A5",
"= c #BC7842",
"a c #F5830E",
"w c #C1BDB6",
"k c #F5861C",
"c c #D7C1B0",
"v c #F57D0A",
"q c #F69026",
"8 c #D18040",
"z c #DA6300",
"9 c #DBDBDB",
"2 c #F79724",
"6 c #F7941F",
"- c #CE5B00",
"+ c #C5C5C4",
"l c #C0B5AB",
"7 c #E3780F",
"1 c #E37810",
"X c #626460",
"r c #F89B28",
"t c #D39A6D",
"m c #F58207",
", c #F8921D",
"  c None",
"i c #F69825",
"$ c #545651",
"O c #CECECE",
"M c #D87D35",
"# c #959694",
"h c #E26A00",
"p c #F79939",
"5 c #F8AC42",
": c #F8A337",
"e c #F8A94C",
"< c #E3770F",
"N c #DC8B4B",
". c #6C6E6A",
"b c #B19378",
"d c #F58A1F",
"s c #E67508",
"n c #F68E0F",
"g c #F57800",
"@ c #BFBEBD",
"o c #C9C9C9",
"3 c #5E605B",
"% c #9FA09D",
"x c #F17E06",
"u c #F7A446",
"* c #666864",
"j c #E26F03",
/* pixels */
" ......X        ",
".oOoOoO+X       ",
".@#######$$$$%  ",
".o&&&&&&&&&&&$  ",
"*@=------------;",
"*o-::::::::::::-",
"*@->,,<---1,,,2-",
"34-56789998022q-",
"$w-er-9t-t9-rry-",
"$4-u2-9-r-9-iiq-",
"$@-pa-9t-t9-sad-",
"$o-fgh899999-jk-",
"$lzixgj----9c-v-",
"$bnmmmmmmxj---MN",
" -------------N ",
"                "
};
