/* XPM */
static const char *statusopen_xpm[] = {
/* columns rows colors chars-per-pixel */
"16 16 22 1",
"> c #9C5A00",
"X c #FFFFFF",
", c #FDD871",
"* c #1298FF",
"@ c #A6D8FF",
"$ c #CBE8FF",
"+ c #6EBFFF",
"% c #2CA4FF",
"= c #0090FF",
"< c #FDD771",
"O c #91CFFF",
"  c None",
"& c #C0E4FF",
"# c #4BB1FF",
": c #FDEE86",
"- c #B06B00",
"1 c #925300",
"; c #A76400",
"3 c #894C00",
"o c #B4DEFF",
"2 c #FDBE59",
". c #0062B3",
/* pixels */
"       ..       ",
"      .XX.      ",
"     .Xooo.     ",
"    .XOOOOO.    ",
"   .X+++++++.   ",
"    ..@###..    ",
"     .$%%%.     ",
"     .&***.     ",
"     .&===.     ",
"      ....      ",
"---          ---",
";::;        ;::;",
">:,>>>>>>>>>>:<>",
"1:2:::::::::::21",
"1:22222222222221",
"3333333333333333"
};
