/* XPM */
static const char *statussave_xpm[] = {
/* columns rows colors chars-per-pixel */
"16 16 23 1",
", c #9C5A00",
"O c #BDFA2F",
"o c #BDFA30",
"< c #FDD871",
"- c #24C609",
"% c #57D816",
"1 c #FDD771",
"  c None",
"+ c #A8F32A",
". c #008800",
"> c #FDEE86",
"* c #3CCF0F",
"= c #3CCF10",
"; c #B06B00",
"$ c #74E21D",
"2 c #925300",
"@ c #8FEA24",
": c #A76400",
"4 c #894C00",
"& c #58D816",
"# c #90EB23",
"3 c #FDBE59",
"X c #FFFFCC",
/* pixels */
"                ",
"      ....      ",
"     .XXXX.     ",
"     .oOoo.     ",
"     .++++.     ",
"    ..@@##..    ",
"   .oo$$$$oo.   ",
"    .%&&&&&.    ",
"     .***=.     ",
"      .--.      ",
";;;    ..    ;;;",
":>>:        :>>:",
",><,,,,,,,,,,>1,",
"2>3>>>>>>>>>>>32",
"2>33333333333332",
"4444444444444444"
};
