/* XPM */ 
static const char * about_logo_xpm[] = {
"48 48 32 1",
" 	c None",
"!	c black",
"#	c #6E6E6E",
"$	c #767676",
"%	c #494949",
"&	c #0E0E0E",
"'	c #2D2D2D",
"(	c #7D7D7D",
")	c #292929",
"*	c #353535",
"+	c #393939",
",	c white",
"-	c #858585",
".	c #5D5D5D",
"0	c #DDDDDD",
"1	c #B9B9B9",
"2	c #F1F1F1",
"3	c #111111",
"4	c #606060",
"5	c #515151",
"6	c #B1B1B1",
"7	c #414141",
"8	c #ADADAD",
"9	c #F9F9F9",
":	c #8E8E8E",
";	c #191919",
"<	c #999999",
"=	c #E5E5E5",
">	c #929292",
"?	c #D2D2D2",
"@	c #A1A1A1",
"A	c #C9C9C9",
"      #$                                   %    ",
"      !!&                                '!!(   ",
"      !))!)                            *!!+!(   ",
"  +$  &%,-&!%                        +!!.01!)!! ",
" $!!!&!%,,2.!3                     4!!50,,6!!!! ",
" #!4%&!7,,,,63!%                  &!'1,,,,8!#7! ",
" #!8,9&7,2,,,2.!3               *!&:,,,,9,8!:+! ",
" #!8,,;+,2<0,,,83!             &!42,,,=>?,8!>+! ",
" #!8,,;+,,,18,,,?;!          (!&@,,,9<6,,,@!<*! ",
" #!8,>;*,,,,2>=,,=)!$       %!)A,,,689,,,,<!<*! ",
" #!8,,;',,,,,,8A,,2*!(     )!%9,,9>0,,,,,,<!<'! ",
" #!8,,)',,?,,,,A8,,9*!    *!#,,,A<,,,,,0,,>!@)! ",
" #!8,,'',,?<0,,,0<,,=3&  7!5,,,<1,,,,?<1,,:!8)! ",
" #!8,,*;,,,,A<2,,2:,,1!3%!+9,,>2,,,A>A,,,,:!8;! ",
" #!8,A;),,,,,,8A,,2>,,:!!)2,9>2,,2>?,,,,,,-!63& ",
" #!8,,+;,,,,,,,?@,,=@,,+!0,9:99,8@,,,,,,,,-!63& ",
" #!8,,+;,,1@9,,,9>2,08,5!,9:,,9:0,,,,2<6,,(!1&3 ",
" #!8,,+;,,,,8@,,,,<2,A95!,6,,=<,,,,=<8,,,,$!1&3 ",
" #!8,='3,,,,,9<?,,,<2,,5!,,,?@,,,,<6,,,,,,$!A!; ",
" #!8,,%3,,,,,,,A8,,,<2,5!,,11,,,A>9,,,,,,,#!A!) ",
" #!8,,73,,1A,,,,2>9,,@9%!,6A,,9>A,,,,,16,,$!1!' ",
" #!8,,73,,,=@8,,,,<=,,,5!,,,,0>,,,,2<@=,,,$!6!' ",
" #!8,='3,,,,,9<?,,,@0,,%!,,,18,,,,@6,,,,,,$!6!' ",
" #!8,,+;,,9,,,,A@,,,8?,5!,,8A,,,1@9,,,,,,,(!6!' ",
" #!8,,+;,,A@2,,,2<2,,69%!,80,,9>0,,,,=<1,,(!6!) ",
" #!8,,+;,,,,6@,,,,@=,,,%!,,,,0<,,,,=<6,,,,-!6!) ",
" #!8,2;;,,,,,9<?,,,80,,%!,,,16,,,,<8,,,,,,-!6!) ",
" #!8,,*),,@9,,,A8,,,6A,%!,,@?,,,A>9,,,,@,,-!6!) ",
" #!8,,*;,,,@6,,,2>9,,197!,8=,,9>A,,,9@@9,,:!6!; ",
" #!8,0'),,,,2<?,,,<=,,,7!,,,,?<,,,,@89,,,,:!8!; ",
" #!8,2;),,,,,,A8,,,8A,,%!,,,86,,,?>2,,,,,,>!8&3 ",
" #!8,,'),9>A,,,2>2,,A6,7!,,>0,,9<1,,,,0<9,>!@&3 ",
" #!8,,'',,,A>2,,,8A,,?97!,6,,,0>9,,,0<1,,,<!8&& ",
" #!8,1)',,,,,86,,,AA,,,7!,,,,66,,,2>1,,,,,<!@;& ",
" #!8,,;;1,,,,,=<9,,A1,,7!,,,>?,,,8@,,,,,,?4!<;! ",
" #!8,,$!!3.6,,,,@A,,08,7!,=:2,,=>=,,,96#)!!!0;& ",
" #!6,,,?-'!!*A,,,A6,,=9+!,A,,,16,,,,@)!!35<=,;! ",
" $!+>A,,,,0$!!42,,?8,,,+!,,,,<?,,,6'!!#<>(5*&!! ",
"  !!!!&7-0,,07!3<,,0<,,+!,,9:2,,A+!!5#)!!!!!3+  ",
"     %&!!!+<9,8;!4,,2>,+!,?<,,,-!!''!!!*        ",
"         '!!!.19%!+2,99*!,?,,=7!3!!!'           ",
"           #3!!+A$!)?,,+!,,,63!!!&#             ",
"              '!!%-!3A,+!,,(!!!!4               ",
"                )!!%&3?*!9#!!!%                 ",
"                  3!!!;)!.!!)                   ",
"                    &!!!!!!.                    ",
"                     $!!!!                      ",
"                       )3                       "};