/* XPM */
static const char *locstabs_page_fixed_xpm[] = {
/* columns rows colors chars-per-pixel */
"14 14 75 1",
"; c #2D2D2D",
"C c #DCA10B",
"a c #F6E67F",
"& c #444444",
"T c #807148",
"f c #D98E02",
"e c #C4AC4D",
". c #808080",
"l c #F2DD55",
"$ c #ADADAD",
"3 c #ADA79A",
"V c #332607",
"N c #FBE004",
"q c #FCF7A7",
"o c #979797",
"F c #F3CC04",
"n c #D78802",
"0 c #F2ECAA",
"S c #896E0E",
"h c #958E81",
"p c #BBA559",
"d c #EBBE30",
"G c #FEF064",
"D c #87836D",
"i c #AF9750",
"P c #8A721B",
"Z c #FEF682",
"M c #FEF37A",
"B c #120F02",
"m c #FEF68A",
"* c #3F3F3B",
"8 c #D6C146",
"c c #816B02",
"@ c #9E9D9A",
"Y c #9F800A",
"  c None",
"t c #979081",
"7 c #8B8872",
"= c #C3BB65",
"s c #F5DD62",
"w c #D7C874",
"6 c #98978F",
"u c #DCAE26",
"z c #F6E15E",
"g c #CE8002",
"y c #918A6E",
"9 c #464238",
"H c #E5BD02",
"+ c #6E6E6E",
"k c #F2CF0D",
"v c #443302",
"< c #4E4D40",
"4 c #353330",
"% c #585858",
": c #6A6848",
"# c #676766",
"R c #8F8D86",
"j c #928E71",
"J c #CE9702",
"1 c #F4F0B3",
"K c #BE7B02",
"L c #8D6F21",
"O c #515151",
"- c #BFBEAF",
"r c #E0B631",
"I c #F0D239",
"> c #8E8B5F",
"x c #F6D40A",
", c #A4A4A4",
"b c #D69604",
"5 c #CBBC50",
"A c #8A7302",
"U c #F8E062",
"X c #707070",
"2 c #F0EAB4",
/* pixels */
"      .X.     ",
"     Xo.XO    ",
"    +@X##O.   ",
"    $%&#.*+   ",
"   .$* =-;:   ",
"   >,<123456  ",
"  78@90qwert  ",
"  yuipasdfgh  ",
"  jklzxcvbnt  ",
"  jxmMNBVCfh  ",
"  jxMZNASfgh  ",
"  DFGmNHJKL   ",
"   PIUHYT     ",
"    @R        "
};
