/* XPM */
static const char *locslist_action_ball_xpm[] = {
/* columns rows colors chars-per-pixel */
"16 16 61 1",
"  c #63B45C3A0000",
". c #657C5DE40000",
"X c #67545F750000",
"o c #681D601F0000",
"O c #86BF7A320000",
"+ c #898F7C8E0000",
"@ c #8A0D7D020000",
"# c #8CBD7F3D0000",
"$ c #8D1F7F9F0000",
"% c #8EB480F80000",
"& c #907A83FB0000",
"* c #91E283AC0000",
"= c #92E384870000",
"- c #928585E30000",
"; c #96B787A80000",
": c #976D88480000",
"> c #975489210000",
", c #9895895F0000",
"< c #991C8A720000",
"1 c #9AD28C2F0000",
"2 c #9B458CCF0000",
"3 c #9BAA8D2C0000",
"4 c #9E608F230000",
"5 c #A0A191450000",
"6 c #A36893DA0000",
"7 c #A7C897F30000",
"8 c #A97A99970000",
"9 c #A8D39B2A0000",
"0 c #A98B9BC20000",
"q c #AB9E9B630000",
"w c #AACB9CE50000",
"e c #ADAC9DBC0000",
"r c #AEBE9E0C0000",
"t c #AE869E7C0000",
"y c #AF429EBF0000",
"u c #B715A8810000",
"i c #B9D1AAED0000",
"p c #BE01AB880000",
"a c #C1A4AEEC0000",
"s c #C2F5AFA10000",
"d c #C50BB1CB0000",
"f c #C969B60B0000",
"g c #CA95B6FF0000",
"h c #CB37B7930000",
"j c #CEDBBA960000",
"k c #D328BDCA0000",
"l c #DAECC4820000",
"z c #DC71C5CB0000",
"x c #DECAC80D0160",
"c c #E3CACC1C01C3",
"v c #EB9DD27D00DC",
"b c #EC7ED34C00B0",
"n c #F494DA160000",
"m c #F2E4DC34187C",
"M c #F924DFDF1DD2",
"N c #FF40E38E0D85",
"B c #FE9FE3D90E24",
"V c #E82AD3C526BE",
"C c #EB61D68F29A7",
"Z c #F800DF622157",
"A c None",
/* pixels */
"AAAAAAAAAAAAAAAA",
"AAAAAAAAAAAAAAAA",
"AAAAAAAAAAAAAAAA",
"AAAAAAAAAAAAAAAA",
"AAAAAAAu9AAAAAAA",
"AAAAACmxff7AAAAA",
"AAAAVZNvkde-AAAA",
"AAAAMNnlsy62AAAA",
"AAAicbls95;OXAAA",
"AAA9jkp91;1@XAAA",
"AAAwfd721;:%XAAA",
"AAAAye6::1*@AAAA",
"AAAA.*:%$*O.AAAA",
"AAAAAA.oooAAAAAA",
"AAAAAAAAAAAAAAAA",
"AAAAAAAAAAAAAAAA"
};
