/* XPM */
static const char *locslist_folder_closed_xpm[] = {
/* columns rows colors chars-per-pixel */
"16 16 21 1",
"< c #FFDB75",
"o c #FFFFFF",
": c #A06E08",
"1 c #996701",
". c #CB9833",
"; c #FFF893",
"* c #B07E18",
"# c #DBB752",
"& c #B5821D",
"> c #FFEF89",
"$ c #BD8A25",
"@ c #DBB771",
"X c #C5922D",
"2 c #FFD46F",
"  c None",
"- c #A5730D",
"= c #FFFF99",
"+ c #C18E29",
"% c #BA8722",
"O c #FFFFBA",
", c #FFE47F",
/* pixels */
"                ",
"                ",
"   ....X        ",
"  .oooOO+       ",
" .@#####@$%&&&* ",
" .oooooooooooo* ",
" .============- ",
" X============- ",
" X=;;;;;;;;;;=: ",
" +=>>>>>>>>>>=: ",
" +=,,,,,,,,,,=: ",
" $=<<<<<<<<<<=1 ",
" %=2222222222=1 ",
"  &&***---:::1  ",
"                ",
"                "
};
