/* XPM */
static const char *locslist_location_ball_closed_xpm[] = {
/* columns rows colors chars-per-pixel */
"16 16 50 1",
"  c #5A285A285A28",
". c gray36",
"X c #5D4F5D4F5D4F",
"o c #5E785E785E78",
"O c #603F603F603F",
"+ c #61D461D461D4",
"@ c #61E561E561E5",
"# c #7EE37EE37EE3",
"$ c #866086608660",
"% c #896B896B896B",
"& c #8CF98CF98CF9",
"* c #8E988E988E98",
"= c #8F778F778F77",
"- c #94FE94FE94FE",
"; c #9D489D489D48",
": c #A4A6A4A6A4A6",
"> c #A848A848A848",
", c #AE86AE86AE86",
"< c #AF97AF97AF97",
"1 c #B085B085B085",
"2 c #B2D0B2D0B2D0",
"3 c #B377B377B377",
"4 c #B4FDB4FDB4FD",
"5 c #B5ADB5ADB5AD",
"6 c #B705B705B705",
"7 c #B991B991B991",
"8 c #BA7ABA7ABA7A",
"9 c #BB58BB58BB58",
"0 c #BD2DBD2DBD2D",
"q c #C1F9C1F9C1F9",
"w c #C28CC28CC28C",
"e c #C4BEC4BEC4BE",
"r c #C5C4C5C4C5C4",
"t c #C81CC81CC81C",
"y c #C903C903C903",
"u c #CA49CA49CA49",
"i c #CA91CA91CA91",
"p c #CC3DCC3DCC3D",
"a c #CE9BCE9BCE9B",
"s c #CFEFCFEFCFEF",
"d c #D0E8D0E8D0E8",
"f c #D160D160D160",
"g c #D26FD26FD26F",
"h c #D44FD44FD44F",
"j c #D52BD52BD52B",
"k c #D590D590D590",
"l c #D6E9D6E9D6E9",
"z c #D955D955D955",
"x c #D988D988D988",
"c c None",
/* pixels */
"cccccccccccccccc",
"cccccccccccccccc",
"cccccccccccccccc",
"cccccccccccccccc",
"cccccccccccccccc",
"cccccccq<ccccccc",
"cccccahae3$ccccc",
"ccccphzjhe- cccc",
"ccccjzjape<#cccc",
"cccqhjhpq07;occc",
"ccc6pap0636;occc",
"ccc;7ep036<&occc",
"cccc-:673<&occcc",
"ccccOO&::& Occcc",
"cccccc@@OOcccccc",
"cccccccccccccccc"
};
