/* XPM */
static const char *locslist_location_ball_opened_xpm[] = {
/* columns rows colors chars-per-pixel */
"16 16 64 1",
"  c #10C7199D6722",
". c #10D61AC46A65",
"X c #10981ABC6BB9",
"o c #10A31ADB6BEF",
"O c #106E1AF26D91",
"+ c #10181B097039",
"@ c #0FC81B3B72AE",
"# c #09801D269EC6",
"$ c #08241E91AE41",
"% c #076E1ED6B3A0",
"& c #07271F01B60C",
"* c #02BD2ED6B0C7",
"= c #0CBA2EF6BF41",
"- c #02913371BED0",
"; c #045C203DCBEE",
": c #041C2020CCAB",
"> c #02A3212ADCBE",
", c #0F30336BD45D",
"< c #000039C0D55B",
"1 c #015321ACE5BA",
"2 c #015121B8E68A",
"3 c #0DEB2C01E156",
"4 c #00002144ED33",
"5 c #0000221FF004",
"6 c #01A0238AEF71",
"7 c #0D532DC7ED9B",
"8 c #00002226F1D8",
"9 c #02A42579F28B",
"0 c #029125D0F4E5",
"q c #083B2A96F4B9",
"w c #09D02C1DF600",
"e c #115A3620F8F5",
"r c #1339380FFA3D",
"t c #196D3E94FEF9",
"y c #19593E3FFFB2",
"u c #00744236EB9B",
"i c #176B4AC6E990",
"p c #039C458AF1A9",
"a c #03264A36FFFF",
"s c #053B4B74FFFF",
"d c #20054FE1EF37",
"f c #219E4D18FA8F",
"g c #25774EFAFEAB",
"h c #27DA4F1AFFFF",
"j c #290F59E6F7EC",
"k c #296950D1FDDC",
"l c #2F3468FAFFFF",
"z c #3259607BFCA9",
"x c #3A4E6061FFFF",
"c c #3B396116FFFF",
"v c #378B6C63FFFF",
"b c #39096FFCFFFF",
"n c #4045697AFFFF",
"m c #42886BBBFFFF",
"M c #4482761FFFFF",
"N c #49617CCBFFFF",
"B c #53257BB5FFFF",
"V c #54487E32FFFF",
"C c #5025812EFFFF",
"Z c #55698561FFFF",
"A c #59B58580FFFF",
"S c #647E90CDFFFF",
"D c #6534915DFFFF",
"F c None",
/* pixels */
"FFFFFFFFFFFFFFFF",
"FFFFFFFFFFFFFFFF",
"FFFFFFFFFFFFFFFF",
"FFFFFFFFFFFFFFFF",
"FFFFFFFFFFFFFFFF",
"FFFFFFFauFFFFFFF",
"FFFFFbNvji*FFFFF",
"FFFFlCDBcf= FFFF",
"FFFFZDAnht3#FFFF",
"FFFsMVnkrw9;OFFF",
"FFFpzche648;OFFF",
"FFF<dgtq661&OFFF",
"FFFF-,7961$XFFFF",
"FFFF+O%>>%O+FFFF",
"FFFFFF@+@@FFFFFF",
"FFFFFFFFFFFFFFFF"
};
