/* XPM */
static const char *locslist_folder_opened_xpm[] = {
/* columns rows colors chars-per-pixel */
"16 16 32 1",
"- c #A7750F",
"q c #FFDB75",
"; c #C69A19",
"O c #FAFBFC",
"o c #FFFFFF",
"< c #DABF6C",
"2 c #A06E08",
": c #E2C150",
"3 c #F7F089",
"4 c #FDD570",
"e c #996701",
". c #CB9833",
"= c #FFF893",
"5 c #FFEF89",
"$ c #BD8A25",
"1 c #FFD784",
"6 c #C9A021",
"  c None",
"& c #B7841F",
"> c #FFEB84",
"0 c #CFA226",
", c #A4720C",
"* c #AC7A14",
"X c #C89530",
"@ c #FFFF99",
"# c #FFFFA5",
"7 c #E2B343",
"w c #F0E47A",
"% c #BA8722",
"9 c #D7B840",
"+ c #C28F2A",
"8 c #FFE47F",
/* pixels */
"                ",
"                ",
"   ..XXX        ",
"  .ooooO+       ",
" .o@#@@#o$%&&&* ",
" .o@@#@@@#oooo* ",
" Xo==@==@====@- ",
";;;;;;;;;;;;:>, ",
";@@@@@@@@@@<;12 ",
";@@=======@3;42 ",
" ;@55555555#672 ",
" ;@@8888888#902 ",
"  ;@qqqqqqqqw;e ",
"  ;,,,,,,,222e  ",
"                ",
"                "
};
