/* XPM */
static const char *menu_undo_xpm[] = {
/* columns rows colors chars-per-pixel */
"16 16 63 1",
"% c #AAC7F5",
"5 c #3A60A7",
"l c #3A69C7",
"o c #B4C9F5",
"; c #4E7FE1",
"C c #A5B7E2",
"m c #AFBCDE",
"i c #769CEC",
"+ c #8FB0F5",
"0 c #99ACD5",
"7 c #6A9AF3",
"B c #567BC7",
"v c #CBD4EB",
"y c #4A82EA",
"> c #B0C6F4",
"- c #3B64B4",
"q c #CED8EC",
"c c #284C95",
"1 c #4670C6",
"O c #C0D0F4",
"@ c #96B6F3",
"n c #AABDE9",
"t c #628EE6",
"p c #6780B4",
"4 c #567DBC",
"u c #5B8DF3",
"S c #5185F2",
"3 c #5B7BBC",
"  c None",
"X c #A6C0F5",
"w c #4064AA",
"a c #BAC7E5",
", c #81A4E9",
"$ c #A4BDF4",
"z c #345FB6",
"f c #5283E5",
"< c #5C8BE9",
"N c #6693EF",
"& c #89A9E9",
": c #9DB9F2",
"r c #98B5F2",
"D c #4B76D1",
"* c #6E98EE",
"6 c #7399E7",
"# c #8CADF4",
"e c #4E7DDD",
"8 c #719CF4",
"j c #4278E3",
"b c #5184E9",
"9 c #6594F1",
"g c #3673DF",
"d c #517EDD",
"k c #4072D6",
"V c #5488F0",
"x c #315AAD",
"Z c #4F84F0",
"h c #4F81E6",
"s c #3E69C1",
"A c #527CD2",
"M c #4677DB",
"2 c #416ABC",
"= c #4671C8",
". c #C5D5F7",
/* pixels */
"                ",
"                ",
"      .XXoO     ",
"     X+@+#$%    ",
" &  X@*=--;:>   ",
" ,%o@<12345<%   ",
" 6789--0 qwer   ",
" tyuipa   sd@   ",
" fgy7t    sh:   ",
" jklzxc  vsbn   ",
"         mMN    ",
"         BVC    ",
"        nZA     ",
"        SDm     ",
"                ",
"                "
};
