/* XPM */
static const char *menu_game_new_xpm[] = {
/* columns rows colors chars-per-pixel */
"16 16 45 1",
"o c #A8A368",
"p c #EEE495",
"y c #E6E2CD",
"d c #FDF6C1",
"= c #F0DA1F",
"< c #E9E3BB",
"s c #D1C45F",
"w c #ECE4A9",
"5 c #E9E6D5",
"g c #FDFCF4",
"X c #92907A",
"t c #FCEE7B",
"* c #F5E456",
"f c #9F9C78",
"- c #EDD509",
"e c #F6E55F",
"a c #F6E560",
"7 c #FBEC6C",
"3 c #FCFAE6",
": c #F4E245",
"q c #E3E3DD",
"2 c #EEE69A",
"8 c #E3E3E2",
"& c #F8F1AE",
". c #878984",
"% c #FDFBEA",
"# c #F7E975",
"  c None",
"r c #FAE74F",
"@ c #ECDC4F",
"> c #EAE9E9",
"i c #E8E3C2",
"+ c #D3C23A",
"0 c #F4E13E",
"9 c #EEE58E",
"4 c #FBEE85",
"j c #A5A6A2",
"; c #EED817",
"6 c #F0E489",
"1 c #EAE8DC",
"h c #898A82",
", c #EAE8E6",
"$ c #FEFEFE",
"u c #FBED73",
"O c #C4B84C",
/* pixels */
"  .....XoO+@#   ",
" .$$$$%&*=--;:  ",
" .$>>,<---%%--- ",
" .$>>12-333333-4",
" .$>,56-333333-7",
" .$>8590-3333-07",
" .$88qwe-$333-rt",
" .$888y9-%--%-u ",
" .$888qip-ae-s  ",
" .$8888qy<wwdf  ",
" .$888888qqqgh  ",
" .$888888888$.  ",
" .$888888888$.  ",
" .$888888888$.  ",
" .$$$$$$$$$$$.  ",
" j...........j  "
};
