/* XPM */ 
static const char * menu_game_info_xpm[] = {
"16 16 47 1",
" 	c None",
"!	c black",
"#	c #7EAE7E",
"$	c #73A773",
"%	c #548A54",
"&	c #4E7B4E",
"'	c #3F683F",
"(	c #385E38",
")	c #406440",
"*	c #8CB88C",
"+	c #5E985E",
",	c #4D7E4D",
"-	c #467446",
".	c #698C69",
"0	c #6EA56E",
"1	c #558C55",
"2	c #515751",
"3	c #85B485",
"4	c #585A58",
"5	c #74A574",
"6	c #466C46",
"7	c #2E4D2E",
"8	c #5A795A",
"9	c #649E64",
":	c #5B6A5B",
";	c #6E906E",
"<	c #8AB78A",
"=	c #649364",
">	c #5E8D5E",
"?	c #4A724A",
"@	c #5A735A",
"A	c #626562",
"B	c #486948",
"C	c #7C7E7C",
"D	c #A6A6A6",
"E	c #C1C1C1",
"F	c #D5D5D5",
"G	c #CACACA",
"H	c #B7B7B7",
"I	c #658565",
"J	c #BDC7BD",
"K	c #E6E6E6",
"L	c #E8E8E8",
"M	c #828F82",
"N	c #B0C0B0",
"O	c #E3EBE3",
"P	c #899F89",
"                ",
"    !!!!!!!!!!  ",
"   !#$%&'((()!  ",
"   !*+,-)((((!  ",
"  !.01,-((()!2! ",
"  !3+,-'(()(!4! ",
" !5$%,6((((7!8! ",
" !39%&')(()!:!  ",
"!;<$=>&?--!!@!  ",
"!.!!!!!!!!!A!   ",
"!BCDEEFFFGH;!   ",
"!%IJKLLLLFM!    ",
" !!!!!NNOEP!    ",
"     !!!!!!     ",
"                ",
"                "};