/* XPM */
static const char *menu_redo_xpm[] = {
/* columns rows colors chars-per-pixel */
"16 16 63 1",
"+ c #AAC7F5",
"< c #3A60A7",
"v c #3A69C7",
"X c #B4C9F5",
"= c #4E7FE1",
"B c #A5B7E2",
"N c #AFBCDE",
"p c #769CEC",
"$ c #8FB0F5",
"e c #6A9AF3",
"0 c #99ACD5",
"C c #567BC7",
"l c #CBD4EB",
"s c #4A82EA",
"- c #3B64B4",
"& c #B0C6F4",
"9 c #CED8EC",
"z c #284C95",
"4 c #4670C6",
". c #C0D0F4",
"% c #96B6F3",
"j c #AABDE9",
"d c #628EE6",
"i c #6780B4",
"1 c #567DBC",
"a c #5B8DF3",
"D c #5185F2",
"2 c #5B7BBC",
"  c None",
"o c #A6C0F5",
"8 c #4064AA",
"u c #BAC7E5",
"5 c #81A4E9",
"@ c #A4BDF4",
"c c #345FB6",
"h c #5283E5",
", c #5C8BE9",
"m c #6693EF",
"> c #89A9E9",
"* c #9DB9F2",
"6 c #98B5F2",
"S c #4B76D1",
": c #6E98EE",
"r c #7399E7",
"# c #8CADF4",
"7 c #4E7DDD",
"w c #719CF4",
"n c #4278E3",
"k c #5184E9",
"q c #6594F1",
"g c #3673DF",
"t c #517EDD",
"b c #4072D6",
"V c #5488F0",
"x c #315AAD",
"A c #4F84F0",
"f c #4F81E6",
"y c #3E69C1",
"Z c #527CD2",
"M c #4677DB",
"3 c #416ABC",
"; c #4671C8",
"O c #C5D5F7",
/* pixels */
"                ",
"                ",
"     .XooO      ",
"    +@#$%$o     ",
"   &*=--;:%o  > ",
"   +,<1234,%X+5 ",
"   6789 0--qwer ",
"   %ty   uipasd ",
"   *fy    desgh ",
"   jkyl  zxcvbn ",
"    mMN         ",
"    BVC         ",
"     ZAj        ",
"     NSD        ",
"                ",
"                "
};
