/* XPM */
static const char *menu_text_search_xpm[] = {
/* columns rows colors chars-per-pixel */
"16 16 76 1",
"w c #A6D6FE",
"c c #4A4A7A",
"9 c #8686AE",
"g c #C6E2F6",
"+ c #4A4A7E",
"p c #AEDEFE",
"T c #B28A2A",
"> c #9696BA",
"5 c #E2EEF6",
"L c #5A423E",
". c #5A5A8E",
"$ c #DADAE6",
"< c #9E9EBE",
"I c #6E3A02",
"0 c #62628E",
"y c #D6E6F6",
": c #626292",
"& c #E2E2EA",
"o c #626296",
"d c #C6EAFE",
"n c #E6F6FE",
"x c #36366A",
"7 c #72729E",
"A c #FEF67E",
"% c #F2F2F6",
"P c #E2BA1A",
"t c #A6D2FE",
"G c #665E6A",
"6 c #B6B6CE",
"K c #3E3E6E",
"; c #7A7AA2",
"u c #3E3E72",
"q c #7E9AC6",
"f c #B6E2FE",
"= c #8282A6",
"  c None",
"D c #8282AA",
"e c #A2D2FE",
"a c #AADAFE",
"i c #8A8AB2",
"O c #4E4E82",
"s c #9ED2FE",
"4 c #BEDEF6",
"l c #D2EEFE",
"E c #6A4212",
"1 c #565686",
"z c #B2D6FA",
"H c #F6EA7E",
"Z c #726E96",
"X c #5E5E92",
"# c #DEDEEA",
"J c #FAF6DE",
"U c #FAF6E6",
"F c #666692",
"k c #EEFAFE",
"R c #765E22",
"* c #66669A",
"v c #AAAABE",
"C c #323266",
", c #EEEEF2",
"V c #765E46",
"- c #B2B2CA",
"h c #3A3A6A",
"B c #7676A2",
"m c #BEE6FE",
"3 c #AAD6FA",
"j c #7676A6",
"M c #DEF2FE",
"@ c #BABAD2",
"N c #7A96C6",
"2 c #7A96CA",
"b c #FEFEFE",
"r c #9ECEFE",
"8 c #424276",
"Y c #E6B20A",
"S c #9A6602",
/* pixels */
"    ..Xoo       ",
"  O+@#$%&o*     ",
" +=-;.:o>,-*    ",
" +<1234567,o    ",
"890qwerty6>&o   ",
"ui8ppaws35o%o   ",
"8;uddfawrg:$X   ",
"hjhkklfwsz.#.   ",
"xocvbnmae2;@.   ",
" xohvMfaN1-BV   ",
" COochu80<7ZAS  ",
"  CxojDi9FGHJAS ",
"    xhKu8LSPAJAS",
"          ISPAUS",
"           ISYTR",
"            IIE "
};
