/* XPM */ 
static const char * menu_text_copy_xpm[] = {
"16 16 71 1",
" 	c None",
"!	c black",
"#	c #B2C2D8",
"$	c #AEBED4",
"%	c #A9B8CE",
"&	c #A3B2C8",
"'	c white",
"(	c #A2B1C7",
")	c #6682A5",
"*	c #96A6BB",
"+	c #BAC5D4",
",	c #5B728F",
"-	c #BADAFF",
".	c #AED0FF",
"0	c #D3DEF5",
"1	c #93A2B7",
"2	c #AFC3ED",
"3	c #AEC4F0",
"4	c #A0B9EF",
"5	c #92B0ED",
"6	c #EBEFF6",
"7	c #E6EAF3",
"8	c #85A7EB",
"9	c #3565C5",
":	c #99ACC7",
";	c #9FC5FA",
"<	c #8EB8F0",
"=	c #81AEE5",
">	c #73A1DE",
"?	c #A6BDEC",
"@	c #729AEA",
"A	c #B2C9F0",
"B	c #2A57B2",
"C	c #F0F2F8",
"D	c #E1E5F2",
"E	c #D7DFEA",
"F	c #9CB5E7",
"G	c #8AAEFC",
"H	c #608EE7",
"I	c #2954AA",
"J	c #2750A2",
"K	c #F6F9FD",
"L	c #6E9CDA",
"M	c #6897D5",
"N	c #90AAE0",
"O	c #EDF0FA",
"P	c #DBE4F7",
"Q	c #C5D3F2",
"R	c #9AAECC",
"S	c #254C9B",
"T	c #CFD9E6",
"U	c #C7D2E1",
"V	c #BFCBDD",
"W	c #829FD8",
"X	c #7FA7F3",
"Y	c #6E97E7",
"Z	c #5C8CDA",
"[	c #5183D1",
"]	c #234896",
"^	c #354963",
"_	c #7392D1",
"`	c #ECEFFA",
"a	c #BECEF0",
"b	c #234792",
"c	c #6485C9",
"d	c #22458E",
"e	c #5579C1",
"f	c #9CB0CE",
"g	c #97A9C4",
"h	c #204186",
"i	c #476EBA",
"                ",
"##$$%&          ",
"#''''()         ",
"$''''*+,        ",
"%'-.01232455    ",
"('''673''''89   ",
":';<=>?''''@AB  ",
"*'C6DEF'GG0HBIJ ",
"1K=>LMN'''OPQRS ",
"1CETUVW'XYZ[[R] ",
"1^^^^^_''`0a2:b ",
"      c'Z[[[[:d ",
"      eKfRR::gh ",
"      iIIJS]ddh ",
"                ",
"                "};