/* XPM */
static const char *menu_exit_xpm[] = {
/* columns rows colors chars-per-pixel */
"16 16 42 1",
"7 c #316103",
"3 c #295302",
"5 c #5A5A59",
"4 c #787876",
"e c #3F7D04",
"1 c #244902",
"$ c #A30000",
"O c #BCBCBA",
"2 c #FE0000",
"t c #929390",
"& c #1A3502",
"# c #0F1D01",
"p c #4A4F50",
"X c #E2E2E0",
"r c #438504",
"d c #4E9D06",
"f c #51A106",
"0 c #6B6B69",
"+ c #B6B6B4",
"o c #D4D4D1",
"8 c #990000",
"6 c #2F5D02",
": c #1F3E02",
"  c None",
"* c #EF2828",
"% c #A9A9A7",
"@ c #A9A9A8",
"; c #B8B8B6",
"> c #203F02",
"< c #A2A2A0",
"- c #C0C0BD",
"= c #DEDEDC",
"w c #3A7404",
", c #D0D0CD",
"s c #4D9706",
"9 c #870000",
"i c #C9C9C7",
"y c #468D04",
"u c #E0E0DE",
"a c #33472B",
"q c #366B03",
". c #2D3335",
/* pixels */
"                ",
"     .......... ",
"     .XoO+@.##. ",
"   $$.XoO+%.&&. ",
"   $*$=o-;@.:>. ",
"$$$$**$,-;<.11. ",
"$****2*$O<<.33. ",
"$*22222*$45.67. ",
"$*88889*$0<.qq. ",
"$***99*$-;<.we. ",
"$$$$**$o-;<.rr. ",
"   $*$Xo-+t.yy. ",
"   $$.uitpawsd. ",
"     .+parsddf. ",
"     .......... ",
"                "
};
