/* XPM */ 
static const char * menu_help_search_xpm[] = {
"16 16 73 1",
" 	c None",
"!	c #354963",
"#	c black",
"$	c #FEFEFE",
"%	c #FFFFF5",
"&	c #FEFFE9",
"'	c #BAC5D4",
"(	c #FFFFDE",
")	c #FEFFD9",
"*	c #FEFFD1",
"+	c #F5E591",
",	c #F5E289",
"-	c #FEFFC9",
".	c #F5DE7F",
"0	c #E4EDCB",
"1	c #90A8F0",
"2	c #6090FE",
"3	c #5090F0",
"4	c #80A0E0",
"5	c #8D7DDC",
"6	c #C0CDC6",
"7	c #70A8FE",
"8	c #A0C0FE",
"9	c #D0E0FE",
":	c #5088E0",
";	c #B0C8FE",
"<	c #E0E8F0",
"=	c #8088C0",
">	c #B0C8F0",
"?	c #4070D0",
"@	c #FFFFC2",
"A	c #80A0F0",
"B	c #D0D0E0",
"C	c #90A0C0",
"D	c #80A8E0",
"E	c #7279C6",
"F	c #FEFFBD",
"G	c #5088F0",
"H	c #B0D0FE",
"I	c #90A8D0",
"J	c #363D9A",
"K	c #FEFFB4",
"L	c #5080E0",
"M	c #F0F0FE",
"N	c #7088C0",
"O	c #E0E8FE",
"P	c #A0C0F0",
"Q	c #282F8C",
"R	c #FEFFAE",
"S	c #A0B8E0",
"T	c #90B0F0",
"U	c #C0D0E0",
"V	c #90A0D0",
"W	c #E9ECFA",
"X	c #7090D0",
"Y	c #8181B9",
"Z	c #F3D76D",
"[	c #F3D364",
"]	c #F2D05B",
"^	c #DAC26A",
"_	c #F0FEFE",
"`	c #C0C8E0",
"a	c #D0E8FE",
"b	c #90B8F0",
"c	c #103090",
"d	c #334E7F",
"e	c #3058C0",
"f	c #6A86C9",
"g	c #8A93C4",
"h	c #8485C3",
"i	c #36368C",
"j	c #362F8C",
"k	c #7373B1",
"!!!!!!!!!       ",
"!$$%$%%&!!      ",
"!$$%%&&&!'!     ",
"!%%%&&&(!!!!    ",
"!$&&&())*+,!    ",
"!&&&())*--.!    ",
"!&())**012345   ",
"!())*-678998:5  ",
"!)*--07;<=!=>?5 ",
"!*--@A8$=!B!CDE ",
"!-@FFGH$$<B!I8J ",
"!@FFKLH$$M!NOPQ ",
"!FKKRST$$UVW9XY ",
"!KZ[]^?H_`!abc  ",
"!!!!!!de4>Pfcg  ",
"        hijk    "};