/* XPM */ 
static const char * menu_file_open_xpm[] = {
"16 16 91 1",
" 	c None",
"!	c black",
"#	c #8191A6",
"$	c #7889A1",
"%	c #8795AA",
"&	c #607495",
"'	c #5F7494",
"(	c #A9A08A",
")	c #D6CFBD",
"*	c #536A8E",
"+	c #4F6890",
",	c #DAD2A0",
"-	c #F7F0AB",
".	c #F9EEA6",
"0	c #FDE898",
"1	c #D6D0C0",
"2	c #4C6793",
"3	c #F6EAA0",
"4	c #FBD471",
"5	c #A39B8E",
"6	c #A39986",
"7	c #9C9180",
"8	c #9D917C",
"9	c #958A79",
":	c #938877",
";	c #FFDC7E",
"<	c #FFD365",
"=	c #F3E69A",
">	c #B9AC8B",
"?	c #B1A88D",
"@	c #B0A68D",
"A	c #AFA386",
"B	c #AA9F83",
"C	c #A1957A",
"D	c #988E7D",
"E	c #F2E192",
"F	c #DEC480",
"G	c #FEDE80",
"H	c #FFE084",
"I	c #FFD871",
"J	c #FFD368",
"K	c #D1A956",
"L	c #F1DC89",
"M	c #FFE28C",
"N	c #C7BA8C",
"O	c #FFD05F",
"P	c #FFCB55",
"Q	c #FAC44C",
"R	c #F5BC41",
"S	c #DBA22E",
"T	c #746651",
"U	c #EFD781",
"V	c #E0C57D",
"W	c #F2B63B",
"X	c #ECAC31",
"Y	c #816925",
"Z	c #ECD279",
"[	c #CEC289",
"]	c #F5B93F",
"^	c #EEB034",
"_	c #EBAA2E",
"`	c #CD8510",
"a	c #5B4A21",
"b	c #D3BE7E",
"c	c #F0B337",
"d	c #E5A024",
"e	c #D48C13",
"f	c #806723",
"g	c #6C685E",
"h	c #928777",
"i	c #D4B26A",
"j	c #CD8F00",
"k	c #C78C04",
"l	c #BE8808",
"m	c #B4820F",
"n	c #A97C15",
"o	c #9F771B",
"p	c #96721F",
"q	c #8F8475",
"r	c #8F8066",
"s	c #877960",
"t	c #7B6E57",
"u	c #6F624E",
"v	c #615644",
"w	c #524839",
"x	c #433A2E",
"y	c #352E25",
"z	c #29221B",
"{	c #1E1914",
"|	c #16120E",
"}	c #18130E",
"                ",
"          #$%   ",
"         &   # '",
" ((((()       *+",
"(,--.0(1     *+2",
"(3-.00456789:   ",
"(3.00;<<<<<<:   ",
"5=00>>?@AB6C8D9:",
"6E0F@GHHHHG;IJK5",
"7LM?NI<<<OPQRST ",
"7UV@GJ<<OQRWXYC ",
"DZ([I<OPQ]^_`a  ",
"9b(;OPQRc_defg  ",
"h(ijjjklmnopa   ",
"qrstuvwxyz{|}   ",
"                "};