/* XPM */ 
static const char * menu_text_cut_xpm[] = {
"16 16 38 1",
" 	c None",
"!	c black",
"#	c #ADBAAC",
"$	c #B7C9B9",
"%	c #9FA89F",
"&	c #999B9C",
"'	c #B6CAB4",
"(	c #A0A59F",
")	c #969796",
"*	c #A1A2A9",
"+	c #ACACAC",
",	c #B3C2B5",
"-	c #BDD2BC",
".	c #C9E0C6",
"0	c #BDBDBD",
"1	c #ADB1AD",
"2	c #A9BBA7",
"3	c #CACACA",
"4	c #ADB8B0",
"5	c #DBDBDB",
"6	c #C5C5C5",
"7	c #A4B0A3",
"8	c #C0D8BF",
"9	c #D6D6D6",
":	c #E7E7E7",
";	c #4B38AB",
"<	c #8182A9",
"=	c #949CA6",
">	c #5745B7",
"?	c #A1ABB3",
"@	c #A1ACAE",
"A	c #888DA9",
"B	c #8589A6",
"C	c #A8B4B6",
"D	c #6259A9",
"E	c #47389E",
"F	c #34238D",
"G	c #3B2A96",
"   ##     $%    ",
"   %&'    ()    ",
"   #*+   ,%%    ",
"   -%+, -%+#    ",
"   .%01,10+'    ",
"    203403%     ",
"    ,+53567     ",
"    8%5 6+'     ",
"     7699(      ",
"    $%63:1,     ",
"   ;;;*)&;;;    ",
"  ;;;;< =;;;;   ",
" ;>==;< ?;=2;;  ",
" ;;@A;B C;@,;;  ",
" ;;D;;   ;;;;E  ",
"  ;;;     ;FG   "};