/* XPM */ 
static const char * menu_text_paste_xpm[] = {
"16 16 106 2",
"  	c None",
"! 	c black",
"# 	c #C3B386",
"$ 	c #BDAD82",
"% 	c #B09F79",
"& 	c #ACA48F",
"' 	c #AAA18D",
"( 	c #9F8D5B",
") 	c #EFE8A5",
"* 	c #F6EA9F",
"+ 	c #E2D58C",
", 	c #766646",
"- 	c #8F8573",
". 	c #948979",
"0 	c #908475",
"1 	c #F8F0A9",
"2 	c #F9F0A7",
"3 	c #A29773",
"4 	c #F5ECA1",
"5 	c #897D6B",
"6 	c #D6C578",
"7 	c #7C6C4C",
"8 	c #786134",
"9 	c #E8C35F",
": 	c #ECB622",
"; 	c #6F5E4E",
"< 	c #96865D",
"= 	c #CFC68C",
"> 	c #F3E291",
"? 	c #E7D57A",
"@ 	c #DEC662",
"A 	c #B29A4F",
"B 	c #675A3E",
"C 	c #A57D1C",
"D 	c #CD8F00",
"E 	c #8A7D5E",
"F 	c #7F7358",
"G 	c #7A6D56",
"H 	c #776952",
"I 	c #73664F",
"J 	c #685A44",
"K 	c #906F23",
"L 	c #584A3E",
"M 	c #A69E8A",
"N 	c #F8EA99",
"O 	c #F5E388",
"P 	c #EAD16D",
"Q 	c #D4A113",
"R 	c #CF970D",
"S 	c #CA9107",
"T 	c #443930",
"U 	c #A29986",
"V 	c #F6E183",
"W 	c #F5D86B",
"X 	c #F4CE53",
"Y 	c #F0B30E",
"Z 	c #8EA0B6",
"[ 	c #8899B0",
"] 	c #8092A9",
"^ 	c #788AA2",
"_ 	c #70829A",
"` 	c #667991",
"a 	c #5E7189",
"b 	c #9E9482",
"c 	c #F4D566",
"d 	c #F3CB4C",
"e 	c #F2C232",
"f 	c #E9AF15",
"g 	c #F9FBFC",
"h 	c #EEF1F7",
"i 	c #E1E6EF",
"j 	c #556881",
"k 	c #4D607A",
"l 	c #9A8E7E",
"m 	c #F0D983",
"n 	c #F2C946",
"o 	c #F1BD28",
"p 	c #F1B716",
"q 	c #E3A403",
"r 	c #9EAEC3",
"s 	c #98A8BD",
"t 	c #D3DBE8",
"u 	c #BAC5D4",
"v 	c #465261",
"w 	c #EDD074",
"x 	c #F0B510",
"y 	c #EAAB07",
"z 	c #DC9D00",
"{ 	c #C6D0E0",
"| 	c #4A5A70",
"} 	c #424850",
"~ 	c #3E3D3F",
" !	c #EAC868",
"!!	c #EBAC08",
"#!	c #D49600",
"$!	c #6F829A",
"%!	c #93A2B7",
"&!	c #B2BFD4",
"'!	c #382F26",
"(!	c #8B7F71",
")!	c #BCC6DA",
"*!	c #ABB9CF",
"+!	c #A8B6CC",
",!	c #8E7E64",
"-!	c #615245",
".!	c #4D4137",
"                                ",
"          # $ %                 ",
"  & & ' ( ) * + , - . 0         ",
"& 1 1 2 3 4 5 6 7 8 9 : ;       ",
"' 1 1 < = > ? @ A B C D ;       ",
"' 1 2 E F G H I I J K D L       ",
"M 1 N O P Q Q Q R S D D T       ",
"U * V W X Y Z [ ] ^ _ ` a       ",
"b > c d e f [ g g g h i j k     ",
"l m n o p q ] g r r s t k u v   ",
". w o x y z ^ g h i t { | v } ~ ",
"0  !x !!q #!$!h r r s %!&!%!%!'!",
"(!: D D D D ` i t { )!&!*!+!%!'!",
"  ,!; -!.!'!a t %!%!%!%!%!%!%!'!",
"            j '!'!'!'!'!'!'!'!'!",
"                                "};