/* XPM */ 
static const char * menu_game_play_xpm[] = {
"16 16 19 1",
" 	c None",
"!	c black",
"#	c #0471F6",
"$	c #0250A7",
"%	c #046BE8",
"&	c #85CDFF",
"'	c #0465DE",
"(	c #2F92FF",
")	c #045FD0",
"*	c #0355BE",
"+	c #1280FF",
",	c #025CB6",
"-	c #014795",
".	c #003774",
"0	c #0250AC",
"1	c #002D66",
"2	c #013F8B",
"3	c #00377B",
"4	c #00316E",
"                ",
"                ",
"                ",
"      #         ",
"      #$        ",
"      %&$       ",
"      '(&$      ",
"      )((#$     ",
"      *+#,-.    ",
"      0#,-1     ",
"      -,-1      ",
"      2-1       ",
"      31        ",
"      4         ",
"                ",
"                "};