/* XPM */ 
static const char * menu_text_delete_xpm[] = {
"16 16 30 1",
" 	c None",
"!	c black",
"#	c #707278",
"$	c #404145",
"%	c #46494E",
"&	c #6F7176",
"'	c #37383C",
"(	c #4F4E4F",
")	c #7B7C83",
"*	c #3E3E41",
"+	c #3C3D3D",
",	c #82848C",
"-	c #686B73",
".	c #44464A",
"0	c #595B61",
"1	c #66686E",
"2	c #484950",
"3	c #2D2E31",
"4	c #2F3034",
"5	c #28292E",
"6	c #565860",
"7	c #303133",
"8	c #1E2125",
"9	c #6E7179",
":	c #25262B",
";	c #505257",
"<	c #161820",
"=	c #121317",
">	c #55575D",
"?	c #686A6F",
"                ",
" ###            ",
" #$%#       ##  ",
"  &'$#     #()  ",
"   #*+#   #$,   ",
"    -.*, #+)    ",
"     -0''+1     ",
"      -''.      ",
"     -234'.     ",
"    -%51-67-    ",
"   -%80  -9'-   ",
"   -:$    -;9   ",
"  -<:,     -+-  ",
"  )=>       )-  ",
"  -?-           ",
"                "};