/* XPM */
static const char *menu_file_save_xpm[] = {
/* columns rows colors chars-per-pixel */
"16 16 85 1",
"s c #C0C8DB",
"% c #C9C9FE",
"p c #787CFD",
"I c #E8EBF5",
"= c #D4D8E9",
"a c #BBC1DB",
": c #A7AED0",
"f c #BABAFE",
"7 c #556EAD",
"b c #909AE3",
") c #5E5D9A",
"- c #E1E4EE",
"C c #8092C6",
"! c #B7BBC8",
"Q c #D5D9E5",
"N c #6778B6",
"3 c #868CFE",
"k c #99A3D0",
"$ c #D2D2FE",
"D c #6969A4",
"t c #ADB3DA",
"@ c #6772B1",
"o c #6F83C5",
"  c #7287BF",
"( c #6C6AA2",
"; c #AEB7D0",
"+ c #7171B5",
", c #838AC3",
"W c #E5E9F5",
"Y c #A5A5FE",
"q c #C7CBE1",
"& c #8390DE",
"/ c #5E6BAA",
"L c #ADADFE",
"i c #7481DE",
"* c #8F95FE",
"h c #6D7DD5",
"l c #98A1CA",
"d c #6980B7",
"G c #DCDFE6",
"8 c #6971AC",
"# c None",
"5 c #DFE3EE",
"^ c #9F9FFE",
"n c #8C96E0",
"c c #B6B6FE",
"B c #A6B4D7",
"v c #A5AAF1",
"P c #6C6FA8",
"R c #7E8BC0",
"< c #9CA6D0",
"6 c #778ABA",
"_ c #7674A9",
"> c #B5BADD",
"0 c #7F84FD",
"J c #B3B7C0",
"1 c #C6C6FE",
"O c #687BB8",
"~ c #D9DDE9",
"Z c #EDF0F8",
"A c #F2F4FA",
"V c #686FB4",
"e c #6E83B8",
"9 c #7784DE",
"x c #8E98CF",
"j c #747DEB",
"E c #6866A3",
"U c #7271B3",
"w c #D0D6E4",
"T c #A9A9FE",
"g c #696DA9",
"r c #4764AD",
"m c #8C95DF",
"F c #B1B1FE",
"H c #B5B9C4",
"4 c #D3D7E8",
"z c #97A1CA",
"2 c #7B89DE",
"M c #A5A6F2",
". c #687DBA",
"u c #C1C1FE",
"S c #7479BA",
"K c #727CB3",
"y c #7986DE",
"X c #667DBC",
/* pixels */
" ..Xo. O O.o+@##",
".$%&*=--;:>*&%,<",
"O%1234-567>321%8",
"O%190qwwert0yu18",
"X11ipasadr:p9f1g",
"O1fhjk<<lzxjhcfg",
"OfvbnnmmmmmmmMfg",
"NfXBBBBBB::::Vcg",
"NcCZAAAAAAAAAScD",
"NFCGHJJHJJHJ-KLP",
"@LCZIIIIIIIIZUYD",
"@TR=HHHHHJHH5+TE",
"@TRI55555W5-IUTE",
"@TRQ!!!!HH!!~+^E",
"@TRIIIIIWWW-IUTE",
"K8/8888PPPPP()E_"
};
