/* XPM */ 
static const char * menu_help_xpm[] = {
"16 16 88 1",
" 	c None",
"!	c black",
"#	c #8D7DDC",
"$	c #8B7BD7",
"%	c #C2B8EE",
"&	c #BDB4ED",
"'	c #B6AAF2",
"(	c #998AE3",
")	c #8678C9",
"*	c #B3A7EF",
"+	c #A599E2",
",	c #9181E1",
"-	c #8879D0",
".	c #AA9EE6",
"0	c #A496DC",
"1	c #988BD3",
"2	c #9387CF",
"3	c #B0A3EA",
"4	c #9E91D8",
"5	c #988CD4",
"6	c #9083CB",
"7	c #8E83C2",
"8	c #887BC3",
"9	c #7E72B2",
":	c #9290DC",
";	c #90A8F0",
"<	c #6090FE",
"=	c #5090F0",
">	c #80A0E0",
"?	c #797CCE",
"@	c #8578C0",
"A	c #DADFE8",
"B	c #C8C0EE",
"C	c #70A8FE",
"D	c #A0C0FE",
"E	c #D0E0FE",
"F	c #5088E0",
"G	c #666BB8",
"H	c #DBDFED",
"I	c #C2CAD9",
"J	c #8376C0",
"K	c #8987D5",
"L	c #B0C8FE",
"M	c #E0E8F0",
"N	c #8088C0",
"O	c #4058A0",
"P	c #B0C8F0",
"Q	c #4070D0",
"R	c #B3BBD5",
"S	c #8D9CB6",
"T	c #8074B7",
"U	c #FEFEFE",
"V	c #7F74BB",
"W	c #80A0F0",
"X	c #D0D0E0",
"Y	c #90A0C0",
"Z	c #80A8E0",
"[	c #6068C0",
"]	c #E7E3F8",
"^	c #5088F0",
"_	c #B0D0FE",
"`	c #405090",
"a	c #90A0D0",
"b	c #363D9A",
"c	c #8174B9",
"d	c #5080E0",
"e	c #F0F0FE",
"f	c #7088C0",
"g	c #E0E8FE",
"h	c #A0C0F0",
"i	c #282F8C",
"j	c #A0B8E0",
"k	c #90B0F0",
"l	c #C0D0E0",
"m	c #EAEDFA",
"n	c #7090D0",
"o	c #7977C4",
"p	c #F0FEFE",
"q	c #C4C8E1",
"r	c #304090",
"s	c #D0E8FE",
"t	c #90B8F0",
"u	c #103090",
"v	c #7679C2",
"w	c #3058C0",
"x	c #797ABD",
"y	c #36368C",
"z	c #362F8C",
"       ##       ",
"      $%$##     ",
"     #&$''(##   ",
"    $&)'**++,## ",
"   $&-**.+0012)#",
"  $&$3.+04566789",
" #%-.+0:;<=>?@9A",
"$B)+04?CDEEDFGHI",
"J#045KCLMNONPQRS",
"TU(V6WDUNOXOYZ[9",
"#)U])^_UUMX`aDb ",
" 7c(Ud_UUe`fghi ",
"   7)jkUUlamEn  ",
"     oQ_pqrstu  ",
"      vw>Phnu   ",
"        xyzi    "};