/* XPM */ 
static const char * qgen_xpm[] = {
"16 16 29 1",
" 	c None",
"!	c black",
"#	c #3C3C3C",
"$	c #565656",
"%	c #696969",
"&	c #A9A9A9",
"'	c #C7C7C7",
"(	c #4D4D4D",
")	c #909090",
"*	c #E5E5E5",
"+	c #5D5D5D",
",	c #656565",
"-	c #EDEDED",
".	c #818181",
"0	c #D9D9D9",
"1	c #717171",
"2	c #FAFAFA",
"3	c #F1F1F1",
"4	c #797979",
"5	c #B6B6B6",
"6	c #9C9C9C",
"7	c #A1A1A1",
"8	c #BFBFBF",
"9	c #D7D7D7",
":	c #D0D0D0",
";	c #343434",
"<	c #2D2D2D",
"=	c #1C1C1C",
">	c #252525",
"  #           $ ",
" $%&%       $'((",
")*%**+    ,&--,+",
".012**%  $0032%,",
")0%30-*$+00-02,4",
")*1--*056*0302%4",
")01330*570*023%4",
")*%2*-08&0-0-2,4",
")01-0-086**-02%4",
")*%-***57-9*03%4",
")01**0-560***3%1",
")0(:**05&0*0-5$1",
" 4&6,:087**)##$.",
"   +%+&&7:;<    ",
"     1=+%>      ",
"       ((       "};