/* XPM */ 
static const char * toolbar_game_info_xpm[] = {
"24 24 75 1",
" 	c None",
"!	c black",
"#	c #3D3D3D",
"$	c #111111",
"%	c #171A17",
"&	c #191919",
"'	c #92BC92",
"(	c #7CAF7C",
")	c #6DA56D",
"*	c #65A065",
"+	c #5E9C5E",
",	c #558D55",
"-	c #4C7E4C",
".	c #446C44",
"0	c #414141",
"1	c #8BB88B",
"2	c #71A871",
"3	c #3C633C",
"4	c #385E38",
"5	c #3F683F",
"6	c #2E4D2E",
"7	c #1A2D1A",
"8	c #5A965A",
"9	c #467546",
":	c #365236",
";	c #203520",
"<	c #565656",
"=	c #9EC39E",
">	c #2C4A2C",
"?	c #182918",
"@	c #808080",
"A	c #284328",
"B	c #626262",
"C	c #528152",
"D	c #4A4A4A",
"E	c #8F8F8F",
"F	c #192619",
"G	c #5D5D5D",
"H	c #6C6C6C",
"I	c #323232",
"J	c #222222",
"K	c #87B587",
"L	c #0D130D",
"M	c #737373",
"N	c #497749",
"O	c #797979",
"P	c #B9D5B9",
"Q	c #ABCCAB",
"R	c #A5C9A5",
"S	c #95BE95",
"T	c #70A770",
"U	c #282928",
"V	c #264026",
"W	c #090F09",
"X	c #959595",
"Y	c #B4B4B4",
"Z	c #AEAEAE",
"[	c #C4C4C4",
"]	c #D2D2D2",
"^	c #B9B9B9",
"_	c #CBCBCB",
"`	c #DEDEDE",
"a	c #172517",
"b	c #E1E1E1",
"c	c #F2F2F2",
"d	c #F9F9F9",
"e	c #A6A6A6",
"f	c #070807",
"g	c #EAEAEA",
"h	c #EFEFEF",
"i	c #E4E4E4",
"j	c #406140",
"k	c #5B825B",
"l	c #848484",
"m	c #8AB78A",
"                        ",
"       #!!!!!!!!!$$%&   ",
"      %'()*+,,-----,.%  ",
"     0)12,--.344335367  ",
"     $'(8,-95344445:;   ",
"    <-=),--93444335>>!  ",
"    !'(8,-9.344443:?@A  ",
"   BC128C-9544434.>7DE  ",
"   !'(8,-9.3444434FGHI  ",
"  J,128C-9544444.>;D2!  ",
"  !'K+,--.33444347BH:!  ",
" G,1)8,-9.34444.>;<2LB  ",
" !KK*8--954444447DMN$   ",
"O8PQR=S'K2T)))*-AG2LB   ",
"UR>AAAAAAAAAAAAVBMN$    ",
"W2:BMXYZ[]^[[_]`X)aB    ",
"$8.Obbb``cdccceYHNf     ",
"7,8-9`ghhibbb`bO27B     ",
" !%jkk-CX`igddlem!      ",
"   0&$$4.CCCRbgmaB      ",
"       <&$$:3NCC$       ",
"           BU$$&        ",
"                        ",
"                        "};