/* XPM */
static const char *toolbar_redo_xpm[] = {
/* columns rows colors chars-per-pixel */
"24 24 79 1",
"S c #69D545",
"Z c #51CE40",
"g c #7DEB68",
"v c #9FF46E",
"+ c #8BDE56",
"Q c #30A630",
"I c #65BE66",
"N c #78DB4C",
"b c #76E762",
"f c #87F071",
"C c #80E962",
"6 c #47BA38",
": c #9AE45F",
"J c #5ED447",
"h c #79E863",
"a c #75D176",
"8 c #8AE85C",
"y c #A7F36E",
"$ c #96EA69",
"* c #2FAA2C",
"B c #65C944",
"; c #85DE56",
"3 c #88EE72",
"F c #58BA58",
"9 c #79D64E",
". c #28A628",
"- c #7CC67C",
"Y c #8DCF8E",
"2 c #86EE6D",
"q c #9EEC69",
"1 c #81E76C",
"n c #6EE15B",
"k c #7FE45A",
"s c #33B534",
"! c #3CA72E",
"# c #90E463",
"4 c #93F172",
"H c #71DC50",
"> c #84DC5E",
"u c #73D049",
", c #78DA60",
"  c None",
"U c #299B26",
"d c #4AC03A",
"o c #3BB131",
"M c #57D246",
"T c #3BAE30",
"r c #88F072",
"5 c #A5F570",
"= c #94E65B",
"z c #5FD74D",
"< c #7CE269",
"X c #2EB32D",
"A c #4CCB3C",
"% c #A1EF69",
"l c #67DC54",
"R c #84E152",
"j c #82E75F",
"m c #60D84E",
"e c #87EE72",
"& c #4EB938",
"p c #8EE054",
"P c #309E30",
"G c #42B434",
"0 c #2DBA2E",
"L c #82D84C",
"c c #45BB37",
"i c #68DD55",
"@ c #98E561",
"O c #52CD3E",
"E c #74D949",
"7 c #31A832",
"K c #71CC44",
"V c #A0F066",
"t c #8DF06E",
"D c #83C583",
"x c #43B844",
"w c #8DEA6C",
"W c #88C688",
/* pixels */
"                        ",
"                        ",
"                        ",
"                        ",
"                        ",
"                    .   ",
"     ......X       o.   ",
"   .O+@##$%%.&    *=.-  ",
"  .;:>,,<12345.6 7;89.  ",
" 0....=qw2e3rrty.u8ip.  ",
".a    sd;y4rf2ghjklzp.  ",
"        xc=v2gbnimzMN.  ",
"          7BVCnlmzZAS.D ",
"           FG=HzJZAAJK. ",
"            7uHMZAAAOLP ",
"           I&pJZAAAAApU ",
"          YTpJZAAAAAAN. ",
"          .pRNEEEEEEEN.W",
"         Q............!.",
"                        ",
"                        ",
"                        ",
"                        ",
"                        "
};
