/* XPM */
static const char *toolbar_location_new_xpm[] = {
/* columns rows colors chars-per-pixel */
"24 24 97 2",
"w  c #88E678",
"q  c #51D13F",
"O. c #51AB45",
"-  c #2DBF1A",
"k  c #32C628",
"r  c #56D245",
"U  c #52DB3B",
"M  c #5BD344",
"'  c #6FC361",
"j  c #4DAE41",
"t  c #95EF84",
"P  c #30C626",
"4  c #4FCB40",
"b  c #80EC6A",
"=  c #47BA3D",
"y  c #58C04D",
"l  c #5ED44E",
"$  c #2EC01B",
"D  c #70EA56",
"g  c #64C257",
"5  c #52CC42",
";  c #76D869",
"V  c #57CD48",
"Z  c #7CE968",
"H  c #3CB62A",
"0  c #61D550",
"h  c #64B95A",
",  c #3BC62E",
"d  c #67E052",
"&  c #72D565",
".. c #59BB4E",
"a  c #4BBC40",
"*  c #31B826",
"6  c #7CDD6D",
">  c #52BA46",
"I  c #5BD847",
":  c #3DBA32",
"N  c #51CA3C",
"B  c #47BF32",
"C  c #78E366",
"O  c #24C319",
"8  c #55BE4A",
" . c #2CA81B",
"z  c #7DE46C",
"S  c #72EC58",
"G  c #63DD4C",
"   c None",
"u  c #1CAC11",
"9  c #61BD55",
"X. c #68BB5D",
"/  c #5FC052",
"v  c #8AF075",
"`  c #3BAE30",
"m  c #68DB57",
"1  c #4ABD3F",
"R  c #3EB533",
"s  c #6DDC5C",
"(  c #45B33A",
"E  c #4CD437",
"e  c #72DD61",
"|  c #41B635",
"Q  c #33B728",
"3  c #66D258",
"J  c #65E54E",
"Y  c #5EE446",
"o. c #6EBA64",
"x  c #78E864",
"{  c #71C164",
"L  c #33AE22",
"#  c #58CD49",
"]  c #76C268",
"T  c #2CA71B",
")  c #50B344",
"f  c #8CEF79",
"%  c #6ED165",
"X  c #3AC931",
"!  c #4BCF38",
"A  c #77EC60",
"<  c #7DDD70",
"[  c #2FAB23",
"7  c #82E172",
".  c #21AC15",
"K  c #69EA50",
"F  c #6BE452",
"2  c #5FBC54",
"+  c #37B92C",
"_  c #55B14A",
"^  c #2BB11F",
"p  c #41BE35",
"i  c #2EB823",
"@  c #68D45A",
"n  c #75E65D",
"}  c #45AF3A",
"~  c #45D22F",
"o  c #2FC525",
"W  c #26A116",
"c  c #92F17E",
/* pixels */
"                                                ",
"                . X o O X X X .                 ",
"                + @ # $ % & & *                 ",
"                = @ @ - @ & ; :                 ",
"                > @ @ , # ; < 1                 ",
"                2 3 @ 4 5 6 7 8                 ",
"                9 0 3 0 q 7 w 8                 ",
"                2 0 @ e r w t y                 ",
"  u i + p = a 8 % 0 s e d f t < y y g h h 9 j   ",
"  k # # # # # # l 0 e z x f c v b n m M N B g   ",
"  k # # # # V l 0 s C Z A S S D F G M N B H 9   ",
"  k # V 5 5 # 0 m d J K D S D F G M N B H L >   ",
"  P 5 5 5 # l I U Y K D S K F G M N B H L T R   ",
"  P 5 5 5 r E U Y K D S D F G M N B H L T W Q   ",
"  o 5 5 ! ~ U Y K D S D F G M N B H L T W W Q   ",
"  u ^ Q p > / g 6 S D F G M N , H ( ) _ _ j `   ",
"                ' D F G M N B ^                 ",
"                ] F G M N B H [                 ",
"                { G M N p H L L                 ",
"                9 M N B H L T `                 ",
"                > N B H L T W }                 ",
"                | B H L  .W W j                 ",
"                [ p a ..X.o.h O.                ",
"                                                "
};
