/* XPM */
static const char *toolbar_action_rename_xpm[] = {
/* columns rows colors chars-per-pixel */
"24 24 89 1",
"V c #EFF197",
"L c #BAAA57",
"e c #E1D8C4",
"] c #194DE9",
"M c #B6BC72",
"c c #EEBD3A",
"W c #CACC7C",
"8 c #F4E077",
"' c #6286EA",
"l c #E1E38D",
"o c #E8D56E",
", c #D8D7D1",
"t c #F7DE6E",
"b c #DBBA58",
"3 c #F7DE71",
"O c #E9CEAD",
"A c #E4A02D",
"$ c #D85B4E",
"H c #D0D181",
"N c #BCBE78",
"h c #F6FA98",
"s c #F2BF2B",
"` c #E6D885",
"D c #949861",
"R c #EAF286",
"r c #F6FA9D",
"& c #F6FAA2",
"T c #DBE380",
"[ c #93ACEB",
"I c #807F53",
"# c #E2B57E",
"> c #E7EBB6",
"Q c #B8BB71",
"Y c #C0C675",
"9 c #F1C02A",
"u c #E7B218",
"E c #7B99EB",
"  c None",
"G c #B9BF70",
"n c #CDD280",
"j c #F0F192",
"p c #E89F31",
"P c #A49654",
"S c #B78D3B",
"U c #848759",
"2 c #E3BFB3",
"y c #EFBA1E",
"6 c #B0B0B3",
"~ c #E7F084",
"1 c #B03D3E",
"0 c #E0B439",
". c #EBDB76",
"- c #CD3F3F",
"B c #B1AB82",
"^ c #EFF887",
"* c #E6E3AC",
"m c #BAC075",
"4 c #D4CAA8",
"K c #B7B067",
"+ c #E9D871",
"C c #E2D768",
"_ c #ACBFEC",
"v c #ECA11F",
"< c #C3989A",
"i c #E79A19",
"X c #E9DB85",
"a c #DAD598",
"q c #C5B59A",
"% c #D76D69",
"= c #C04A49",
"Z c #E7D25F",
": c #F7FD9A",
"J c #003AE9",
"f c #EA9B24",
"k c #EBF292",
") c #4973EA",
"7 c #B69A9C",
"w c #B0AFAD",
"5 c #C4C2C3",
"@ c #F8FEA6",
"; c #C56868",
"g c #F4CC5D",
"/ c #F4FE87",
"F c #A3A868",
"! c #D3D97D",
"( c #3160E9",
"x c #DFD26C",
"d c #E79C16",
"z c #D2CC9D",
/* pixels */
"                        ",
"                        ",
"                        ",
"                        ",
"    .X..........oO      ",
"    +@@@@@@@@@@@#$%     ",
"    .@&&&&&&&&&*=--;    ",
"    .@@&@&@:&&>,<112    ",
"    .@&&&&&@:34567      ",
"    .@@&@&@:890qwe      ",
"    +@&&&&rtyuipa       ",
"    +@&&&&tsudfgh       ",
"    +@@&:tyuiftrj       ",
"    +@@&8sudfghklz      ",
"    +@&&xcvfbnmMNB      ",
"    +@&VCZASDDFGHJJ     ",
"    +&&KLPIUFYTREJJE    ",
"    +@rWQmY!~^//())(    ",
"    o&rrrrhrhhrhJ__J    ",
"    XXXXXXX````']  ]'   ",
"               ]JJJJ]   ",
"              [J    J[  ",
"              E'    'E  ",
"                        "
};
