/* XPM */
static const char *toolbar_text_search_xpm[] = {
/* columns rows colors chars-per-pixel */
"24 24 98 2",
"v  c #B5E2FF",
"=  c #A4A4C6",
"m  c #9595C2",
"U  c #C69400",
"Q  c #E2AF00",
"s  c #707098",
"d  c #CDD1E1",
"D  c #F6E696",
"-  c #D2D2E4",
"b  c #B1DFFE",
"#  c #C3C3DD",
"n  c #4B4B7C",
"y  c #DDEAF6",
"F  c #A68229",
"Y  c #8F5C00",
"c  c #D1E5F3",
"^  c #E8B709",
"<  c #7B7FAC",
"K  c #E3B002",
"O  c #8080A7",
"x  c #A1A8C5",
"z  c #8F8FC0",
"p  c #9ED0FE",
"A  c #D1BB8A",
"G  c #FFFBC0",
" . c #787453",
"R  c #CD9A00",
"@  c #BDBDD7",
"X  c #8181A9",
"V  c #C0A366",
"}  c #B98701",
"u  c #C1DDF3",
";  c #AEAED4",
"]  c #9F7E5A",
"M  c #BFE6FE",
"H  c #FEED67",
"P  c #FEED68",
"*  c #9898B6",
"j  c #A9D9FE",
"$  c #C5C5E0",
"Z  c #C3A76C",
"3  c #8989B6",
".. c #C99D0F",
"'  c #EAB907",
"g  c #6C7EAD",
"0  c #7D81AF",
"   c None",
"r  c #9191B8",
">  c #7373A0",
"|  c #2863A3",
"(  c #A07F5A",
"e  c #A0A0C9",
"O. c #765325",
"q  c #A8A8CA",
"k  c #5D5D8A",
"f  c #A0CFFC",
"4  c #B5BAD2",
"X. c #617DAE",
"t  c #D6DCE9",
"/  c #C08D00",
"1  c #9C9DC2",
"w  c #9AA3C2",
"a  c #7A94C6",
"E  c #A1805A",
"h  c #C7C7D5",
"9  c #7083B5",
"_  c #FAF6CA",
"+  c #9A9ABC",
"I  c #FBD62E",
"7  c #BCDBF4",
"~  c #A98B6B",
"%  c #ACADC3",
"o. c #37426D",
".  c #9393B2",
"l  c #C8C8DB",
"&  c #8C8CAD",
"B  c #CCEBFF",
"C  c #B2975E",
"+. c #7D4A00",
"{  c #D8C076",
"5  c #D8E4F0",
",  c #6E6EA0",
"L  c #946101",
"T  c #FFF077",
"`  c #FFF078",
"i  c #A5D5FE",
"2  c #B2B2D2",
"J  c #FAD432",
"o  c #7E7EA0",
"W  c #FDD82D",
"[  c #847A55",
")  c #AE8839",
"!  c #BB8801",
":  c #8D8DBB",
"S  c #FAF5C0",
"6  c #CDE3F3",
"N  c #C6E8FF",
"8  c #99BEE5",
/* pixels */
"                          . X X o O +           ",
"                      + @ # $ $ # @ % & *       ",
"                    = - ; : > , , < 1 2 + &     ",
"                  + - 1 3 4 5 6 7 8 9 0 q 3 .   ",
"                w - e r t y u i p p p a < q s   ",
"                = $ 3 d y 7 f p p i i p g 1 X & ",
"              = h 1 w 5 7 p p i i j j j 8 s 1 k ",
"              = l z x c i p i i j j v v b k = n ",
"              = h m w 7 p i i j b M N B N k = n ",
"              = l z x c i p i i j j v v b k = n ",
"              = h 1 w 5 7 p p i i j j j 8 s 1 k ",
"                = $ 3 d y 7 f p p i i p g 1 X & ",
"                w - e r t y u i p p p a < q s   ",
"            V V C + - 1 3 4 5 6 7 8 9 0 q 3 .   ",
"          Z A S D F = - ; : > , , < 1 2 + &     ",
"        V A G H J K L + @ # $ $ # @ % & *       ",
"      V A S P I K U Y     . X X o O +           ",
"    Z A S T J K R Y E                           ",
"  V A G P W Q ! Y ~                             ",
"V A S P I ^ / Y (                               ",
") _ ` I ' U Y ]                                 ",
"[ { J K } L ~                                   ",
"|  .../ Y (                                     ",
"X.o.O.+.]                                       "
};
