/* XPM */ 
static const char * toolbar_options_xpm[] = {
"24 24 71 1",
" 	c None",
"!	c black",
"#	c #575757",
"$	c #EAE9E8",
"%	c #F9F9F8",
"&	c #D8D8D7",
"'	c #F8F7F6",
"(	c #F3F2F1",
")	c #1C4176",
"*	c #ECEAE8",
"+	c white",
",	c #EDEBEA",
"-	c #CCCCCC",
".	c #AFAFAF",
"0	c #E8E7E4",
"1	c #EAEAEA",
"2	c #E3E3E2",
"3	c #FAFAF9",
"4	c #DCDCDC",
"5	c #E8E7E6",
"6	c #F2F1EF",
"7	c #EDEBE9",
"8	c #EBE9E7",
"9	c #FAFAFA",
":	c #CFCDCA",
";	c #F8F8F7",
"<	c #F9F9F7",
"=	c #F9F8F7",
">	c #FEFEFE",
"?	c #B5B5B5",
"@	c #F6F6F5",
"A	c #F8F8F8",
"B	c #E7E6E4",
"C	c #BBC1C8",
"D	c #F4F4F4",
"E	c #9DB0CA",
"F	c #DFDFDF",
"G	c #A4ADB6",
"H	c #FBFBFB",
"I	c #7590AE",
"J	c #A4BAD0",
"K	c #90A6BE",
"L	c #A7B1BD",
"M	c #C1C1C1",
"N	c #E3E2E1",
"O	c #D3DFEA",
"P	c #A2AEBC",
"Q	c #9DB6CE",
"R	c #637B95",
"S	c #849CB6",
"T	c #D7E2ED",
"U	c #8D98A5",
"V	c #9DB8D2",
"W	c #607791",
"X	c #99ADC3",
"Y	c #DFE7F0",
"Z	c #8193A9",
"[	c #586D84",
"]	c #5B7189",
"^	c #A1B4C8",
"_	c #EEF3F6",
"`	c #60768F",
"a	c #E4E3E1",
"b	c #91A6BE",
"c	c #F0F4F7",
"d	c #97A5B6",
"e	c #B0C6DB",
"f	c #EDF2F6",
"g	c #818A95",
"h	c #6C85A1",
"i	c #C0D1E2",
"                        ",
"     ####               ",
"     #$%&#              ",
"      #'(&#        ))   ",
"       #*%#       )+))  ",
"  ###  #,%#      )+-.)  ",
"  #01##2*3#      )4.)   ",
"  #567*888%#    )9))    ",
"   #:;%<%88=#  )>)      ",
"    ####?%*8@#)A)       ",
"        ##%BC)D)        ",
"          #E)F)#        ",
"        ))))D)GH#       ",
"       )IJK))LMN>#      ",
"      )IOPQR)#>88>#     ",
"     )STURVW) #>*8>#    ",
"    )XYZ[VI])  #>88>#   ",
"   )^_Z`VI])    #>a8>#  ",
"  )bcd`VI])      #>8#># ",
"  )efgVI])        #>88# ",
"  )hVib])          ###  ",
"   )hhR)                ",
"    )))                 ",
"                        "};