/* XPM */
static const char *toolbar_action_new_xpm[] = {
/* columns rows colors chars-per-pixel */
"24 24 61 1",
"y c #5DD646",
"h c #80D577",
"m c #80CF77",
"Z c #194DE9",
"N c #3FAC30",
"C c #6286EA",
"o c #35C425",
", c #6AD958",
"l c #83CD7A",
"q c #70EA56",
"X c #52CC42",
"% c #76D869",
"B c #3BA92D",
"p c #6EEA55",
"9 c #69E350",
"# c #68D35A",
"6 c #86EE70",
": c #90D387",
"A c #93ACEB",
"3 c #5DD24D",
"* c #62D652",
"w c #60D949",
"O c #5DCF53",
"5 c #7BEA66",
"v c #7B99EB",
"  c None",
"; c #89E679",
"- c #96D58D",
"z c #9BD991",
"g c #2AA81C",
"d c #4BD038",
"f c #2AA519",
"a c #3EB82D",
"t c #46C938",
"e c #43BC2F",
"u c #53DB3C",
"M c #43BC32",
"1 c #91EE80",
"2 c #78D16E",
". c #78D170",
"& c #90D887",
"j c #50C543",
"V c #ACBFEC",
"> c #74CE6A",
"s c #33AE22",
"7 c #51C93B",
"+ c #85D17A",
"c c #003AE9",
"i c #61E549",
"$ c #43C733",
"0 c #72EB58",
"x c #7ECD73",
"n c #4973EA",
"r c #40B430",
"< c #72E55A",
"@ c #8DD685",
"4 c #79E368",
"k c #88CC7F",
"b c #3160E9",
"8 c #4DBD3C",
"= c #7EDE6F",
/* pixels */
"                        ",
"                        ",
"                        ",
"                        ",
"                        ",
"         .XoOO+         ",
"         @#$#%+         ",
"         &#X*=@         ",
"         -***;:         ",
"     .++@>*,<12&--:     ",
"     XX3XO,4565<378     ",
"     7XX3*990q9w7er     ",
"     tXXyuipp9y7ass     ",
"     t7duipq9w7esfg     ",
"     2h@&hq9y7j+@kl     ",
"         z9w7ex  cc     ",
"         -y7asx vccv    ",
"         @7esfl bnnb    ",
"         mMrNBk cVVc    ",
"               CZ  ZC   ",
"               ZccccZ   ",
"              Ac    cA  ",
"              vC    Cv  ",
"                        "
};
