/* XPM */
static const char *toolbar_location_rename_xpm[] = {
/* columns rows colors chars-per-pixel */
"24 24 139 2",
"h. c #DFC34F",
"p. c #D6DD88",
"V  c #E2A140",
"s  c #B4B4B7",
",. c #B6BC6F",
"u. c #90935F",
"r. c #7E7749",
"A  c #EFA129",
"t. c #7C7D55",
"#  c #C45742",
"D  c #E8E183",
"K  c #F7A312",
"3  c #D64444",
"/  c #CDD381",
"M  c #E5C855",
"2  c #DB4848",
"p  c #D0C9C1",
"6  c #E8EDB2",
"@  c #E4C17A",
"e. c #726637",
"-. c #898959",
"l. c #E0CA7B",
"Z  c #E6DE82",
")  c #BCC175",
";. c #828559",
"+. c #ADB26C",
"C  c #C2BBA4",
"1  c #CD4040",
".. c #ADB270",
"s. c #D8DF84",
"z  c #AEAEB1",
"9. c #C9D079",
"N  c #E7A116",
"x  c #C2C1C2",
"   c #EDD98E",
"H  c #E1C551",
"7  c #D6D4D5",
":. c #85895A",
"y  c #B02F2F",
"X  c #E6CC65",
"!  c #EAAB22",
"*. c #E5B040",
"I  c #EAF291",
"J  c #F1F095",
"k  c #CAC6BD",
"<. c #C7CD76",
"$. c #E7E288",
"u  c #BF6D6D",
"<  c #BD3B37",
"w. c #F4F49A",
"-  c #E95252",
"k. c #E4CF7B",
"_  c #BDC27D",
"h  c #F7B11D",
"%  c #F9FEB1",
"%. c #E5D968",
"G  c #F7FE9E",
"O. c #A4A868",
"B  c #E79218",
"e  c #CDCDCF",
">  c #F7FEA4",
"0  c #BD3535",
"q. c #EBF386",
"Y  c #DEE491",
"6. c #837D4F",
"(  c #C0C678",
"4  c #C73D3D",
";  c #E24E4E",
"4. c #D3BA59",
".  c #E7CD68",
"3. c #DBC85F",
"L  c #EDCC2C",
"7. c #727451",
"O  c None",
"j. c #E3D973",
"o  c #E5CA5A",
"R  c #B0AA8F",
"T  c #CFC977",
"@. c #C0BA70",
"m  c #BAB5A2",
"5  c #C37575",
"n  c #BFB9B3",
"P  c #F0A42B",
"y. c #7D8057",
"r  c #BA7A7D",
"b  c #DDA436",
"o. c #9EA265",
"2. c #AA9E57",
">. c #8F935E",
"9  c #B53232",
"0. c #DBE285",
"l  c #A2A2A5",
"X. c #A1A669",
"g  c #F8E47B",
"$  c #C86464",
"q  c #CF9494",
"'  c #AAA48A",
"Q  c #F4A91B",
"|  c #E29626",
"j  c #E2C542",
"&. c #E7D263",
"=. c #CE831D",
"U  c #E3EA8B",
"c  c #EAC723",
"d  c #B9B9BB",
"a. c #D4DB84",
"W  c #ECCD4F",
"w  c #D7D7D8",
"1. c #D9DF8A",
"S  c #F4A932",
",  c #E7DB9B",
"8. c #777A53",
" . c #C0C277",
"v  c #E7B116",
"t  c #A52727",
"E  c #D9D37C",
":  c #BC4747",
"f  c #B27476",
"d. c #E4EB86",
"`  c #BBB56E",
"F  c #F8FE98",
"i  c #F7E57F",
"8  c #C18083",
"a  c #BFBEC0",
"&  c #F8FEA1",
"~  c #E9EC8D",
"+  c #F8FEA8",
"*  c #E7C98B",
"i. c #F4FE87",
"g. c #F4FE88",
"[  c #E7E36E",
"^  c #DDE48B",
"f. c #EFF789",
"]  c #DACE68",
"#. c #B1AA91",
"=  c #C4403C",
"}  c #F39E1A",
"5. c #AA9751",
"{  c #EBC54A",
/* pixels */
"  . . . . . X X X X X X X X X X X o o o O O O O ",
"o + + + + + + + + + + + + + + + + + + @ # $ O O ",
"o % + & & & & & & & & & & & & & & & * = - ; : O ",
"o % & > > > > > > > > > > > > > > , < 1 2 3 4 5 ",
"o % & & & > & & > & & & > & > & 6 7 8 9 0 0 0 q ",
"o % & & & > & & > & & & > & > 6 w 7 e r t y u O ",
"o % & > > > > > > > > > > > i p 7 a s d f u O O ",
"o % & & & > & & > & & & > g h j k d l z x O O O ",
"o % & & & > & & > & & & g h c v b n s m O O O O ",
"M % & > > > > > > > > g h c v N B V C Z O O O O ",
"M % & & & > & & > & g h c v N B A S & D O O O O ",
"M % & > > > > > > g h c v N B A S F & D O O O O ",
"M % & & & > & & g h c v N B A S F F & D O O O O ",
"M % & & & > & g h c v N B A S F G G > Z O O O O ",
"H % & & & > J K L v N B A P F F I U Y T R O O O ",
"H % & > > > E W Q ! B A A ~ ^ / ( ) _ ` ' O O O ",
"H % & & > > ] [ { } P |  ...X.o.O.+._ @.#.O O O ",
"H % & > > $.%.%.&.*.=.-.;.:.>.o.,.<.1.E O O O O ",
"H % > & & 2.3.4.5.6.7.8.:.o.,.9.0.q.F D O O O O ",
"H % & & w.e.r.t.y.;.u.+.9.0.q.i.i.i.G D O O O O ",
"H % & F G p.a.s.0.0.d.f.g.g.g.g.g.i.G D O O O O ",
"H % & G G G G G F F F F F F F F F F G D O O O O ",
"h.w.w.w.w.w.w.w.w.w.w.w.w.w.w.w.w.w.w.j.O O O O ",
"O k.k.k.k.k.k.k.k.k.k.l.l.l.l.l.l.l.l.l.O O O O "
};
