/* XPM */
static const char *toolbar_location_delete_xpm[] = {
/* columns rows colors chars-per-pixel */
"24 24 63 1",
"M c #CB3838",
"0 c #E64949",
"p c #BB7A7A",
"c c #B01818",
"e c #E08D8D",
"O c #B47070",
"h c #C84B4B",
"w c #EB7070",
"f c #E32424",
"# c #EE7D7D",
"y c #EB6D6D",
"Z c #E66666",
"N c #AF5A5A",
"l c #CC6262",
"C c #C64545",
"z c #C91717",
"6 c #D85858",
"- c #F09191",
"t c #E84545",
"s c #E53535",
"a c #D54545",
"u c #C08686",
"& c #E95858",
"* c #DE6C6C",
"A c #C43636",
"n c #CB6969",
"q c #EA6565",
"5 c #DA7272",
"@ c #DC6666",
"j c #C81818",
"  c None",
"g c #D91B1B",
"d c #D33636",
"2 c #C49191",
"b c #AE1414",
"= c #EF8F8F",
"< c #E85656",
"1 c #DE8080",
"x c #B11515",
", c #E76F6F",
"3 c #E84D4D",
"% c #EF8080",
"v c #CD7171",
"B c #E45C5C",
"k c #BB1717",
"7 c #F08D8D",
"o c #B05D5D",
"r c #BE8888",
"D c #C12525",
": c #F19A9A",
"4 c #E09191",
"m c #DF4040",
"X c #C18989",
". c #B46E6E",
"9 c #D95252",
"S c #D75858",
"> c #F2A1A1",
"; c #EF9191",
"V c #C84646",
"i c #E07F7F",
"+ c #E77474",
"$ c #B26565",
"8 c #DF8989",
/* pixels */
"                        ",
"     .X          Xo     ",
"    O+@X        X@#$    ",
"   O%&&@X      X*=-=$   ",
"  O%&&&&*X    X*;::>;$  ",
" $,<<<&<&12  X*-:>>::%$ ",
" X@<&33&&&42X1=:>>>:-5X ",
"  X633333&&417-:>>:-8X  ",
"   X93033&qw&-::::-er   ",
"    X@0t3&y##--7%w*u    ",
"     Xi3&qw##wwyq9p     ",
"      21qqqqywyq6p      ",
"      r10&qwwyq<au      ",
"     u5t&qywyq&0sdX     ",
"    u@t&qwwyq&tsfghX    ",
"   u9t&qywyq&tsfgjkl2   ",
"  uat&qywyq6asfgzkxcv2  ",
" udt&ywwyq5Xudgjkxbbxn2 ",
" om&qywyq1X  uMkxbbbbh. ",
"  NBwwyq1X    uVxxbbC.  ",
"   NZyq5X      XCxbA$   ",
"    oBSX        XADo    ",
"     o           XN     ",
"                        "
};
