/* XPM */
static const char *toolbar_file_saveas_xpm[] = {
/* columns rows colors chars-per-pixel */
"24 24 95 2",
"n  c #CACACA",
"R  c #14161E",
"-  c #32343E",
":  c #55565A",
"c  c #737476",
"#  c #828385",
"t  c #E1E7EE",
"(  c #0D0F14",
"2  c #4E525C",
"V  c #ADADAD",
"p  c #292A2D",
"E  c #515356",
"Z  c #606266",
"Y  c #49D437",
"D  c #979798",
"8  c #2C2E38",
" . c #597E54",
"|  c #118604",
"b  c #B8B9B9",
"e  c #DBE1EA",
"{  c #14410D",
"1  c #F4F5F7",
"f  c #2F323C",
"*  c #484C56",
"7  c #3E414B",
"}  c #137703",
"Q  c #146108",
"W  c #989897",
"0  c #E3E9F0",
"/  c #0F1115",
"!  c #139704",
"m  c #8C8D8E",
"H  c #488941",
"r  c #DCE2E7",
"$  c #303032",
"B  c #626469",
"O  c #999999",
"   c None",
"<  c #F3F6FA",
"%  c #1F2126",
"_  c #065000",
"S  c #5B5D61",
"g  c #ABB2BB",
"C  c #A1A1A1",
"u  c #D8DFE8",
"v  c #B0B0B0",
"F  c #1C341B",
"I  c #4CDD3A",
"N  c #181A21",
"w  c #3B3F49",
"X. c #538C4D",
"T  c #71846D",
"9  c #EAEFF5",
"4  c #EFF3F8",
"k  c #252931",
"z  c #20222A",
"=  c #525660",
"A  c #7F8082",
"a  c #D4DCE5",
")  c #104606",
"d  c #CFD5DF",
"~  c #139C06",
"G  c #4D9243",
".  c #4B4C4D",
"6  c #4B4F59",
">  c #41444F",
"+  c #78797B",
"5  c #D7D7D7",
"&  c #FAFCFE",
";  c #444852",
"@  c #3A3D47",
"J  c #1B2F1C",
"L  c #949495",
"s  c #D0D6DF",
"i  c #C1C1C1",
"M  c #1A1F28",
"K  c #151820",
"[  c #242424",
"P  c #173515",
"X  c #383A3F",
"]  c #424242",
"l  c #242732",
"^  c #1A620E",
"j  c #333641",
"o  c #5B5C5F",
"'  c #144B0A",
",  c #F6F9FC",
"h  c #18191D",
"`  c #086900",
"x  c #27282C",
"y  c #363A44",
".. c #2DAB1C",
"U  c #5CF54C",
"3  c #2F3031",
"q  c #EDF2F6",
/* pixels */
"  . X o O O O O O O O O O O O O O O O + @ #     ",
"  $ % $ & & & & & & & & & & & & & & & $ * =     ",
"  - = $ & & & & & & & & & & & & & & & $ ; :     ",
"  $ > $ , < 1 1 1 1 1 1 1 1 1 1 1 1 & $ ; 2     ",
"  $ > 3 4 5 5 5 5 5 5 5 5 5 5 5 5 5 < $ > 6     ",
"  $ 7 8 9 9 0 0 0 0 0 0 0 0 0 0 0 0 q $ 7 *     ",
"  $ w 8 0 5 5 5 5 5 5 5 5 5 5 5 5 5 0 $ w ;     ",
"  $ @ 8 e r r r r r r r r r r r r r t $ y >     ",
"  $ y 8 u i i i i i i i i i i i i i e $ y 7     ",
"  $ - p a s d d d d d d d d d d d d a $ - @     ",
"  3 f p g a a a a a a a a a a a a a g $ f y     ",
"  8 f h 8 8 8 3 3 3 $ $ $ $ 3 3 3 8 3 h f j     ",
"  8 f 8 k k l k 8 8 8 8 8 8 8 k k 8 8 8 f -     ",
"  8 8 8 8 f z p 8 8 8 p p p p p x f 8 k 8 f     ",
"  p k k k - c v b b i n i i i n m f k z z 8     ",
"  p z z z f v m M N B v V V V v C f k z z k     ",
"  p z z z 8 V m z z Z V C C C C O 8 z z N z     ",
"  p N N N k O A N N S V O O O C D k F G H J     ",
"  p N N N z O + K K : O O O O O L P I U U Y T   ",
"  p R R R z L c R R E W L L L L m Q ! ~ ~ ~ ^   ",
"  . / ( ( h i i b b b i i i i i V ) _ ` ` _ '   ",
"    ] ] [ . ] . . . . . . . . . ] { } | | }  .  ",
"                                    H ....X.    ",
"                                                "
};
