/* XPM */ 
static const char * toolbar_file_open_xpm[] = {
"24 24 126 2",
"  	c None",
"! 	c black",
"# 	c #C49928",
"$ 	c #F4E48F",
"% 	c #FAF3B8",
"& 	c #FEFDD4",
"' 	c #FFFEC7",
"( 	c #FFFCBE",
") 	c #FEFAB4",
"* 	c #FEF8A3",
"+ 	c #E6EA8C",
", 	c #44C133",
"- 	c #50BE34",
". 	c #F3EC84",
"0 	c #FFED7F",
"1 	c #FDF3B1",
"2 	c #F8E78B",
"3 	c #FEF8AB",
"4 	c #FEF49B",
"5 	c #F5EC8A",
"6 	c #6FD862",
"7 	c #72DA64",
"8 	c #FFEE79",
"9 	c #FFFEC8",
": 	c #FEE979",
"; 	c #FAE785",
"< 	c #5CD34C",
"= 	c #79D96B",
"> 	c #85E078",
"? 	c #8BE57C",
"@ 	c #FEF194",
"A 	c #FCE264",
"B 	c #80D775",
"C 	c #4ECD3D",
"D 	c #81DF71",
"E 	c #99F186",
"F 	c #A0E492",
"G 	c #7CD170",
"H 	c #8DEC7A",
"I 	c #96ED85",
"J 	c #9CF08A",
"K 	c #8CD77D",
"L 	c #6BCB5D",
"M 	c #64D354",
"N 	c #71E15E",
"O 	c #90ED7E",
"P 	c #83E570",
"Q 	c #74C669",
"R 	c #FFEE8A",
"S 	c #75C660",
"T 	c #6BDB5B",
"U 	c #7CE46A",
"V 	c #80EB6C",
"W 	c #7CEE65",
"X 	c #70E856",
"Y 	c #67E150",
"Z 	c #5CD545",
"[ 	c #58CB44",
"] 	c #7CBC70",
"^ 	c #FFE873",
"_ 	c #73EC58",
"` 	c #C4CC54",
"a 	c #BCC549",
"b 	c #6E8712",
"c 	c #FEE86A",
"d 	c #FDE469",
"e 	c #FBE058",
"f 	c #8B8815",
"g 	c #68DF50",
"h 	c #50C93A",
"i 	c #FCDC3A",
"j 	c #FDE666",
"k 	c #898612",
"l 	c #67DF4F",
"m 	c #43BD30",
"n 	c #49BA3C",
"o 	c #FCDD44",
"p 	c #F7E161",
"q 	c #A6A42F",
"r 	c #36B124",
"s 	c #4BB43D",
"t 	c #FFF28E",
"u 	c #EFC651",
"v 	c #E8B13D",
"w 	c #AAA832",
"x 	c #43BC2F",
"y 	c #2CA71B",
"z 	c #FFF086",
"{ 	c #F0C949",
"| 	c #A9A631",
"} 	c #29AA1B",
"~ 	c #26A116",
" !	c #41B133",
"!!	c #E7AF38",
"#!	c #37B02A",
"$!	c #FDE45D",
"%!	c #FADD51",
"&!	c #EAB73A",
"'!	c #2DAF21",
"(!	c #FEE03A",
")!	c #FEEC75",
"*!	c #ACA62C",
"+!	c #56B049",
",!	c #4CAF40",
"-!	c #3AAB2D",
".!	c #FEE96F",
"0!	c #F0C641",
"1!	c #E5BB3C",
"2!	c #EBD64C",
"3!	c #EAD649",
"4!	c #EED841",
"5!	c #FADD4D",
"6!	c #E3AA31",
"7!	c #EAB93A",
"8!	c #F5C03D",
"9!	c #FEE240",
":!	c #E7AC32",
";!	c #FCE04C",
"<!	c #EAC437",
"=!	c #F4D851",
">!	c #FAE156",
"?!	c #E8B436",
"@!	c #F1BC39",
"A!	c #F4D64A",
"B!	c #F4D949",
"C!	c #EFCB45",
"  # # # # # # # # # # # # # # # # # #           ",
"# # $ % & & & & ' ( ) ) * * + , - . 0 #         ",
"# 1 # # # # # 2 3 3 * * 4 5 , 6 7 , 8 #         ",
"# & 9 9 ) 4 : # # # # ; 4 , < = > ? , #         ",
"# & ' ( ) 3 3 * @ 8 A # , B C D ? E F ,         ",
"# & ( ) 3 * 4 @ @ 0 0 , G 6 < H I J J K ,       ",
"# 9 ) 3 * 4 @ @ 0 0 , L M 7 N O E E O P Q ,     ",
"# ( 3 * * @ R 0 ; , S M T U V W W X Y Z [ ] ,   ",
"# ) * 4 @ R R ; ^ , , , , , X _ X Y , , , , ,   ",
"# 3 * @ R R 0 : ^ ` ` a b , _ X Y Z , #         ",
"# * @ R R 8 : ^ c d A e f , X g Z h , i #       ",
"# 4 R R 0 : ^ ^ c j e # k , l Z h m n i o #     ",
"# @ R 0 : ^ c d A p # # q , Z h m r s i i o #   ",
"# t 8 : ^ ^ A j e u # v w , h x r y s i i i #   ",
"# z : ^ c d A A e { # v | , x r } ~  !i i i #   ",
"# 0 ^ ^ d A A e e { # !!| , r } ~ ~ #!i i i #   ",
"# 8 c c A e $!e %!{ # &!q , y ~ ~ ~ '!i i (!#   ",
"# )!c A A $!%!e %!{ # !!*!, , +!,!-!} i i (!#   ",
"# .!j e e %!$!%!%!0!# &!&!1!2!2!2!3!4!i i (!#   ",
"# c $!e e $!%!%!5!0!# 6!7!8!%!%!5!5!5!9!(!#     ",
"# j $!$!%!%!%!%!5!0!# :!&!8!5!5!5!5!;!<!#       ",
"  # # =!>!>!%!5!5!0!# 6!?!@!A!B!B!B!B!#         ",
"      # # # # # 5!C!# # # # # # # # #           ",
"                # #                             "};