/* XPM */
static const char *toolbar_file_save_xpm[] = {
/* columns rows colors chars-per-pixel */
"24 24 73 1",
"b c #CACACA",
"m c #1E2129",
"H c #14161E",
"- c #32343E",
": c #55565A",
"z c #737476",
"# c #828385",
"t c #E1E7EE",
"2 c #4E525C",
"V c #ADADAD",
"i c #292A2D",
"J c #515356",
"Z c #606266",
"D c #979798",
"P c #0E1015",
"8 c #2C2E38",
"c c #B8B9B9",
"e c #DBE1EA",
"L c #16181E",
"1 c #F4F5F7",
"s c #2F323C",
"* c #484C56",
"7 c #3E414B",
"K c #989897",
"0 c #E3E9F0",
"% c #1E2026",
"n c #8C8D8E",
"r c #DCE2E7",
"$ c #303032",
"B c #626469",
"O c #999999",
"  c None",
"< c #F3F6FA",
"N c #1A1D25",
"S c #5B5D61",
"d c #ABB2BB",
"C c #A1A1A1",
"u c #D8DFE8",
"x c #B0B0B0",
"F c #181A21",
"w c #3B3F49",
"9 c #EAEFF5",
"4 c #EFF3F8",
"h c #252931",
"k c #202229",
"= c #525660",
"A c #7F8082",
"a c #CFD5DF",
". c #4B4C4D",
"6 c #4B4F59",
"> c #41444F",
"+ c #78797B",
"& c #FAFCFE",
"; c #444852",
"@ c #3A3D47",
"G c #949495",
"p c #D0D6DF",
"v c #C1C1C1",
"M c #1A1F28",
"Y c #242424",
"X c #383A3F",
"U c #424242",
"j c #242732",
"g c #333641",
"o c #5B5C5F",
", c #F6F9FC",
"f c #18191D",
"5 c #D3D1CF",
"l c #27282C",
"y c #363A44",
"I c #0C0E14",
"3 c #2F3031",
"q c #EDF2F6",
/* pixels */
" .XoOOOOOOOOOOOOOOO+@#  ",
" $%$&&&&&&&&&&&&&&&$*=  ",
" -=$&&&&&&&&&&&&&&&$;:  ",
" $>$,<111111111111&$;2  ",
" $>345555555555555<$>6  ",
" $7899000000000000q$7*  ",
" $w8055555555555550$w;  ",
" $@8errrrrrrrrrrrrt$y>  ",
" $y8u5555555555555e$y7  ",
" $-iupaaaaaaaaaaaau$-@  ",
" 3siduuuuuuuuuuuuud$sy  ",
" 8sf888333$$$$33383fsg  ",
" 8s8hhjh8888888hh888s-  ",
" 8888ski888iiiiils8h8s  ",
" ihhh-zxccvbvvvbnshmk8  ",
" ikkksxnMNBxVVVxCshkmh  ",
" ikkm8VnmmZVCCCCO8kmNk  ",
" iNNNhOANNSVOOOCDhmN%k  ",
" iNNNkO+FF:OOOOOGkNNNk  ",
" iHHHkGzHHJKGGGGnkLLFN  ",
" .PIIfvvcccvvvvvVHIPIP  ",
"  UUY.U.........UYYYY.  ",
"                        ",
"                        "
};
