/* XPM */
static const char *toolbar_location_clear_xpm[] = {
/* columns rows colors chars-per-pixel */
"24 24 139 2",
"e. c #BFA829",
"&. c #ECDE6F",
"j  c #C06928",
"G  c #F6E981",
"`  c #DECA23",
"E  c #9C8006",
"f  c #D11715",
"0. c #B59D2D",
"U  c #F9E763",
"o  c #C5A87B",
"h. c #A39C7B",
"t  c #E3D140",
"k. c #A69443",
"H  c #DBC958",
"d  c #B71005",
"o. c #EBD323",
"i. c #A98C11",
"Y  c #F4E685",
"$  c #C58724",
"]  c #F0D72A",
"L  c #DAC102",
":. c #D4C250",
";  c #AA792C",
"s  c #D59D21",
"p  c #D91919",
"y. c #DCC123",
"$. c #C5B03E",
"a. c #9D8416",
"*  c #C88B2C",
")  c #AC9327",
"Z  c #D4A707",
"w. c #A28E34",
"q. c #AC9940",
"W  c #E6D86A",
"K  c #D8BE02",
"s. c #CDB840",
"{  c #FDE955",
"&  c #CB9E58",
"X. c #E4D248",
"e  c #A58C19",
"4  c #F0E07A",
"B  c #B61711",
">  c #A67628",
"A  c #DBC20A",
"P  c #EFD824",
",  c #986E09",
"/  c #EEE07F",
"j. c #CEB937",
">. c #AD9733",
"N  c #B29B36",
".  c #9A6819",
"f. c #DDC544",
"<  c #A68D14",
"1  c #A1860F",
"6  c #A18610",
"%  c #CC933A",
"1. c #D9BC0D",
"2. c #E8CE29",
"h  c #B40803",
"0  c #C45325",
"F  c #F2DF50",
"7  c #B3991C",
"2  c #CF9D4C",
"8  c #E8DA65",
"=  c #C07C10",
"^  c #FCED74",
"   c None",
"k  c #B69D25",
"4. c #C5AC33",
"(  c #C0AB3D",
"O. c #F5E053",
"8. c #F5E35F",
"|  c #EDDB74",
"5. c #AC952E",
"_  c #DCCC57",
"@. c #FDE84F",
"6. c #DDC717",
",. c #D2BE48",
"u  c #BE2A11",
"@  c #D0A460",
"u. c #E6D159",
"r. c #DDC71A",
"9  c #F5E371",
"p. c #A79752",
"J  c #BD4322",
";. c #FAED8C",
"v  c #D51817",
"~  c #FBE546",
"'  c #F1DD45",
"t. c #E2CB2F",
"3. c #FDEE7B",
":  c #B49D3D",
"l  c #B9A44A",
"[  c #F9E23A",
"y  c #E4BF32",
"q  c #B10602",
"#  c #D6AC6A",
"C  c #B21608",
"-  c #D6A962",
"S  c #E3C914",
"x  c #B0971F",
"c  c #B76911",
"M  c #B09721",
"-. c #E5CC37",
"T  c #C4B049",
"5  c #BAA233",
"V  c #C5130F",
"9. c #E0C535",
"D  c #EBD41D",
"a  c #C5AE25",
"<. c #E1CF38",
"g. c #C0A721",
"l. c #AE9A3F",
"w  c #D36D6D",
"+. c #EBD12F",
"m  c #E3D260",
"+  c #AA7A30",
"7. c #DFC91F",
"d. c #E6D656",
"z  c #9D820D",
" . c #C7B772",
"b  c #D29128",
"r  c #B9A018",
"n  c #E9D744",
"X  c #94610E",
".. c #C8B23A",
"Q  c #F1D928",
"g  c #E11F1F",
"i  c #C41410",
"3  c #B18F24",
"=. c #F3DF59",
"O  c #C4A77A",
"I  c #F1D931",
"*. c #ECD532",
"}  c #F8E980",
"%. c #C3B163",
"#. c #FDF08D",
"!  c #F9E133",
"R  c #A88E1F",
/* pixels */
"                                                ",
"      . X o                                     ",
"  O + @ @ .                                     ",
"  . # $ % & .                                   ",
"  . @ * = - ;     :                             ",
"  O > # % * @ , < 1                             ",
"    O . @ 2 3 < 4 5                             ",
"        X 6 7 8 9 0 q w                         ",
"        e r t y u i p q                         ",
"      1 a t s d f g h j k e                     ",
"    l z x c h p v h b n 4 m M N                 ",
"          B p V C Z A S D F G H <               ",
"            q J K L A S D P I U Y T R           ",
"            E W A L A S D I Q ! ~ ^ / ( 6       ",
"            ) _ ` L A S D Q ' ] [ ~ { } | z     ",
"             ...X.L K S o.o.[ O.+.~ @.#.$.%.    ",
"              < &.A K A o.*.] { =.-.;.:.)       ",
"              >.,.<.L 1.S ' 2.I 3.| 4.5.        ",
"                e &.6.7.1.o.8.9.4 0.q.          ",
"                w.e.8 r.t.y.} u.i.p.            ",
"                  a.s.d.&.f.g.z h.              ",
"                    z :.j.z k.                  ",
"                      z l.                      ",
"                                                "
};
