/* XPM */
static const char *toolbar_action_delete_xpm[] = {
/* columns rows colors chars-per-pixel */
"24 24 48 1",
"0 c #DB2525",
"= c #F19C9C",
"s c #B51F1F",
"l c #194DE9",
"r c #BA2020",
"k c #6286EA",
"4 c #EE8080",
"- c #E55353",
"5 c #E66969",
"g c #D16F6F",
"9 c #E43434",
"1 c #E54A4A",
"% c #E85151",
"; c #E84E4E",
"O c #E96161",
"7 c #CF6363",
"z c #93ACEB",
"@ c #EB8A8A",
"o c #D07070",
"3 c #ED7878",
"a c #C15E5E",
"w c #DB1E1E",
"8 c #CD5D5D",
", c #EC9191",
"q c #CC7979",
"p c #7B99EB",
"  c None",
"& c #D79191",
"t c #C57272",
"h c #E19999",
"u c #AE1414",
"2 c #E97272",
"y c #B81616",
"+ c #E65C5C",
"# c #F09999",
". c #D58585",
"j c #ACBFEC",
"6 c #EA6D6D",
"< c #C96E6E",
"i c #003AE9",
"f c #4973EA",
"> c #F2A1A1",
"$ c #E85E5E",
": c #E66464",
"* c #D58D8D",
"X c #D27D7D",
"e c #C91818",
"d c #3160E9",
/* pixels */
"                        ",
"                        ",
"                        ",
"                        ",
"                        ",
"       ..      .X       ",
"      oO+o    X@#X      ",
"     X$%$+&  *@==#.     ",
"     .-%;%:*.@=>=,*     ",
"      <1;;$22#==,*      ",
"       .-%O34445.       ",
"        X:O626:7        ",
"        X-O66O18        ",
"       .-$66O%90q       ",
"      71O66:19wert      ",
"     o1$665o80eyuii     ",
"     7$665*  <ruyiip    ",
"      865X    asdffd    ",
"       gh      <ijji    ",
"               kl  lk   ",
"               liiiil   ",
"              zi    iz  ",
"              pk    kp  ",
"                        "
};
