/* XPM */
static const char *toolbar_game_play_xpm[] = {
/* columns rows colors chars-per-pixel */
"24 24 68 1",
"- c #2E79EE",
"c c #0969FE",
"H c #3C6CDB",
"p c #011190",
". c #3C63C2",
"$ c #435BB7",
"7 c #B2D2FF",
"G c #4C8BF6",
"h c #112498",
"F c #1E33A8",
"w c #1735A6",
"= c #DDEAFF",
"M c #1469F5",
": c #3F55B1",
"V c #2372F6",
"t c #343193",
"9 c #9DC6FF",
"< c #1A7AFF",
"n c #0861F6",
"g c #463E92",
"f c #050A89",
"6 c #1839A9",
"% c #204AB7",
"b c #0D158A",
"d c #5B9FFF",
"z c #101C91",
"m c #080B89",
"4 c #0C28A2",
"s c #1671FD",
"A c #4085F7",
"> c #3289FF",
"q c #363699",
"  c None",
"k c #0B006F",
"v c #005EF6",
"S c #366EE3",
"8 c #373D9F",
"D c #252189",
"j c #0860ED",
"r c #3080F6",
"J c #251E83",
"0 c #081F9C",
"o c #1D42AF",
"y c #152EA0",
"a c #372E89",
"3 c #B9D7FF",
"@ c #428DFF",
"Z c #0A0478",
"& c #2C83FF",
"l c #0C71FE",
"K c #746EAD",
"# c #2272EC",
"O c #7D92D2",
"x c #0066FF",
"C c #2C71ED",
"5 c #3945A5",
"e c #86B6FF",
"i c #1E75F7",
"X c #1F47B3",
"N c #090880",
", c #C7DEFF",
"; c #1035AE",
"* c #EFF5FF",
"1 c #3D4DAB",
"B c #247AFF",
"+ c #1258D4",
"u c #71AAFF",
"2 c #3383FF",
/* pixels */
"                        ",
"      .XoO              ",
"     .+@#o$             ",
"     %&*=-;:            ",
"     X>==,<;1           ",
"     o2,,,3@45          ",
"     6&77777@48         ",
"     6<99999920q        ",
"     w<eeeeeeer0t       ",
"     y<uuuuuuuuipa      ",
"     ysdddddddddifg     ",
"     hs@@@@@@@@@@jk     ",
"     hl2&&2&&&&&<jk     ",
"     zx<<<<sscxxvfg     ",
"     zxxxxxxxxxvfa      ",
"     bxxxxxxxxvfa       ",
"     bcccccccnfa        ",
"     mssssssMfa         ",
"     NBBBBBVfa          ",
"     N2222Cma           ",
"     ZA@@SZa            ",
"     DFGHZg             ",
"      JkkK              ",
"                        "
};
