/* XPM */ 
static const char * toolbar_location_copy_xpm[] = {
"24 24 25 1",
" 	c None",
"!	c #5E5E5E",
"#	c #D5D5D5",
"$	c black",
"%	c #F7F8F8",
"&	c #E5E5E5",
"'	c #E1E1E1",
"(	c #DCDCDC",
")	c #CDCDCD",
"*	c #CBCBCC",
"+	c #F7F8F7",
",	c #C2C2C2",
"-	c #B6B6B6",
".	c #EEEEEE",
"0	c #959696",
"1	c #F8F7F7",
"2	c #C9C9C9",
"3	c #D1D1D1",
"4	c #919291",
"5	c #8A8A8A",
"6	c #B9B9B9",
"7	c #E9E9E9",
"8	c #F5F3F5",
"9	c #F7F7F8",
":	c #565656",
"!!!!!!!!!!#             ",
"!%%%%%%%%&!#            ",
"!%%%%%%%%'(!)           ",
"!%%%%%%%%#&'!*          ",
"!%%%%%%%+,('(!-         ",
"!%%%%%%.!!!!!!!!!!0     ",
"!%%%%%1'!&%%%%%%%2!0    ",
"!%%%%%1#!%%%%%%%%(3!0   ",
"!%%%%%+3!%%%%%%%%(&(!4  ",
"!%%%%%+3!%%%%%%%%(%1&!4 ",
"!%%%11.3!1%%%%%%%#%%%+!5",
"!%%111.3!1%%%%%%%(####6!",
"!%1111.)!%%%%%%%%%7&&&#!",
"!%1+.87)!1%%%%%%%%%%%%(!",
"!%1..+7*!1%%%1%%%%%%%11!",
"!%....&2!191+9911111+11!",
"!%1+.+&3!111++111111+1+!",
"!%%%%%%&!++++111111+1+9!",
"!!!!!!!!!++.+....1.+.+9!",
"        !++.+.+.+.+.+.1!",
"        !%.7..7+7...7.1!",
"        !+7+77+77+77+7+!",
"        !&++++++++++++&!",
"        !!!!!!!!!!!!!!:!"};