/* XPM */ 
static const char * toolbar_location_paste_xpm[] = {
"24 24 44 1",
" 	c None",
"!	c black",
"#	c #696969",
"$	c #BFBFBF",
"%	c #794F34",
"&	c #6B3001",
"'	c #DCDCDC",
"(	c #8C8C8C",
")	c #7D5436",
"*	c #954C01",
"+	c #9C6A1E",
",	c #E9E9E9",
"-	c #955001",
".	c #D0D0D0",
"0	c #E1E1E1",
"1	c #F1F1F1",
"2	c #D4D4D4",
"3	c #CFCFCF",
"4	c #9D5D0A",
"5	c #713201",
"6	c #D8D8D8",
"7	c #A36407",
"8	c #A5660E",
"9	c #A66914",
":	c #E6E6E6",
";	c #A96B19",
"<	c #AD7122",
"=	c #EEEEEE",
">	c #AA6F1E",
"?	c #B37629",
"@	c white",
"A	c #AF7629",
"B	c #BEBEBE",
"C	c #B27A31",
"D	c #A26211",
"E	c #A36514",
"F	c #A96A17",
"G	c #B27B34",
"H	c #AB7631",
"I	c #7C3A01",
"J	c #7E3C01",
"K	c #9D600B",
"L	c #B87C30",
"M	c #5F3C2E",
"          ###           ",
"         ##$##          ",
"   %&&&&&#'('#&&&&&)    ",
"  %&**+(((,,,(((+**&%   ",
"  &-..(0,1,1,1,0(23*&   ",
"  &4.2(((((((((((224&   ",
"  54666'2'2'2'2'2'64&   ",
"  57'''''''''''''''7&   ",
"  &70000000000000007&   ",
"  &80000000000000008&   ",
"  &9:,,,,,,,,,,,,,:9&   ",
"  &;,,,,,,,,,,,,,,,;&   ",
"  &<==,1,11,1,1,1,1>&   ",
"  &<11111,111111111<&   ",
"  &?11@11@11@@@@@@@A&   ",
"  &A1@11@11@@BBBBB(<&   ",
"  &?@@@@@@@@@'0'0(4C&   ",
"  &C@@@@@@@@@',,(4DC&   ",
"  &C@@@@@@@@@'1(4EFC&   ",
"  &G@@@@@@@@@'(4E;<G&   ",
"  &G@@@@@@@@@(4E;<?G&   ",
"  &HIIJJJJJJJKE;<?LH&   ",
"  M&&&&&&&&&&&&&&&&&M   ",
"                        "};