/* XPM */
static const char *toolbar_undo_xpm[] = {
/* columns rows colors chars-per-pixel */
"24 24 79 1",
"p c #6DB0F0",
"# c #3D4AAE",
"0 c #7595F0",
"N c #6B84E2",
": c #70B1F3",
"g c #4A82CF",
"% c #559DDD",
"e c #678DE8",
"Q c #3A5AB7",
"k c #2C2F9E",
"y c #2F39A4",
"d c #65B0EF",
"A c #748ACE",
"X c #3C71C8",
"n c #6C6DBB",
"7 c #405CBB",
"* c #3651B3",
"$ c #4C8AD5",
"V c #728DEA",
"Z c #4C55B2",
"s c #6C9CEA",
"9 c #739AF1",
"S c #6291E7",
", c #6DACF2",
"@ c #344EB2",
"B c #708AE7",
"M c #6598E3",
"h c #3F69BF",
"q c #7391EC",
"= c #3D6CC5",
"D c #6E8AE6",
"H c #6670BF",
"K c #7A80C5",
"i c #5F78D6",
"U c #5DAAE8",
"3 c #3946AC",
"  c None",
"- c #589DE0",
"l c #3662C0",
"2 c #3D5DBA",
"8 c #65AFEB",
"E c #3B63BF",
"J c #3856B6",
"5 c #5F95DE",
"I c #688DE9",
"w c #6D91EC",
"G c #416EC4",
"o c #3459BB",
". c #3036A2",
"P c #6FA8EF",
"! c #3A3BA3",
"t c #5FB2EC",
"u c #63A3E5",
"+ c #2F4FB5",
"6 c #4F90D8",
"a c #7399EE",
"1 c #579EE0",
"R c #5268BE",
"f c #5AA5E4",
"O c #4B67BF",
"> c #70AFF2",
"4 c #4466C1",
"< c #67B4F0",
"; c #6CB8F3",
"Y c #7B8CCE",
"F c #70A6F2",
"& c #3357BA",
"C c #589CDF",
"z c #677FDD",
"m c #4373C8",
"j c #3041A9",
"r c #618EE5",
"c c #6EA0F0",
"W c #3E66C0",
"b c #353FA7",
"L c #4170C6",
"T c #65A5ED",
"v c #518FD6",
"x c #6883DF",
/* pixels */
"                        ",
"                        ",
"                        ",
"                        ",
"                        ",
"   .                    ",
"   Xo      O+....@#     ",
"  .$%&   *=-;:>,,<123   ",
"  4%5627=8:900qwer-t$y  ",
"  .uiu$%paq00qwsdfgh2jk ",
"  luzxssqq000cpv*b    n.",
"  mMzNBVq009pC@Z        ",
" A$SNDVq00FpG3          ",
" O-DDVq00F8@H           ",
" +8DVqq00Fg#            ",
" opVqq00qw<JK           ",
" LPqq00qwISUj           ",
"Y$>>>>>,,TTU%.          ",
"REmLGGGWEE22Qy!         ",
"                        ",
"                        ",
"                        ",
"                        ",
"                        "
};
