/* XPM */
static const char *exit_xpm[] = {
/* columns rows colors chars-per-pixel */
"16 16 41 1",
"6 c #316103",
"2 c #295302",
"4 c #5A5A59",
"3 c #787876",
"w c #3F7D04",
"0 c #376F03",
"< c #244902",
"$ c #A30000",
"1 c #FE0000",
"r c #929390",
"& c #1A3502",
"# c #0F1D01",
"i c #4A4F50",
"X c #E2E2E0",
"e c #438504",
"s c #4E9D06",
"d c #51A106",
"9 c #6B6B69",
"+ c #B6B6B4",
"o c #D4D4D1",
"7 c #990000",
"5 c #2F5D02",
"  c None",
"* c #EF2828",
"O c #BFBFBC",
"% c #A9A9A7",
"@ c #A9A9A8",
"; c #B8B8B6",
": c #203F02",
", c #A2A2A0",
"- c #C0C0BD",
"= c #DEDEDC",
"q c #3A7404",
"> c #D0D0CD",
"a c #4D9706",
"8 c #870000",
"u c #C9C9C7",
"t c #468D04",
"y c #E0E0DE",
"p c #33472B",
". c #2D3335",
/* pixels */
"                ",
"     .......... ",
"     .XoO+@.##. ",
"   $$.XoO+%.&&. ",
"   $*$=o-;@.::. ",
"$$$$**$>O;,.<<. ",
"$****1*$O,,.22. ",
"$*11111*$34.56. ",
"$*77778*$9,.00. ",
"$***88*$-;,.qw. ",
"$$$$**$oO;,.ee. ",
"   $*$Xo-+r.tt. ",
"   $$.yuripqaa. ",
"     .+ipeassd. ",
"     .......... ",
"                "
};
