/* XPM */
static const char *new_xpm[] = {
/* columns rows colors chars-per-pixel */
"16 16 45 1",
"@ c #D3D818",
": c #A6AE05",
"p c #CED42C",
", c #CCD41D",
"5 c #C9D041",
"o c #C0CC19",
"e c #D6DC45",
"& c #ACB004",
"; c #8B941B",
"y c #BBC228",
"f c #BFBC52",
"4 c #B8C307",
"7 c #92A00B",
"t c #999E14",
"j c #A5AC4D",
"h c #949A22",
"g c #AAAD46",
"9 c #DDE250",
"  c None",
"0 c #98A505",
"= c #C8D009",
"* c #D7DC0F",
"3 c #CBD416",
"r c #8C9402",
"2 c #DAE02F",
"8 c #808C00",
"1 c #B7C137",
"a c #AAA92C",
"d c #BEBC47",
"q c #88910E",
"u c #909C06",
"# c #D9DE1D",
". c #778500",
"w c #CCD53A",
"< c #D9DE22",
"> c #BBC008",
"s c #9CA124",
"i c #909605",
"+ c #BDC030",
"- c #B4BC08",
"6 c #CDD623",
"X c #7D8D02",
"$ c #D3D809",
"O c #878F0B",
"% c #ABB808",
/* pixels */
"         ..     ",
"         XoX    ",
"      ....oo.   ",
"    O.+@##$%o.  ",
"   O&*=====-%oX ",
"  ;:$$====>%%-,.",
"  ;<*===---%%,. ",
" O1234====<%,.  ",
" .5678....,,.   ",
" .90q    .,X    ",
" .w8     ..     ",
" .er            ",
" tyu            ",
"  ipa           ",
"   sdf          ",
"    ghj         "
};
