/* XPM */
static const char *about_xpm[] = {
/* columns rows colors chars-per-pixel */
"16 16 24 1",
"# c #E3E4E3",
"- c #E8E8E7",
"1 c #535652",
"& c #A8A9A7",
"$ c #E9E9E9",
"% c #9C9E99",
"2 c #68614F",
"+ c #C7C5C5",
". c #878984",
"@ c #ADAFAA",
"> c #C1C2C0",
"< c #D0D1D0",
"  c None",
", c #C9CAC8",
": c #BBBCBA",
"O c #B9BCB5",
"5 c #A5A6A2",
"; c #DADBDA",
"* c #92948F",
"4 c #FCAE3C",
"= c #E7E7E8",
"o c #F6F6F6",
"3 c #BC8D44",
"X c #FEFEFE",
/* pixels */
"  .........     ",
" .XXXXXXXoX.    ",
" .XOOOOO+@#X.   ",
" .X$$$$$$%$$#.  ",
" .XOOOOO#&%*..  ",
" .X$==-##;:>,.  ",
" .XOOOOO##<,#.  ",
" .X#########X.  ",
" .X11111#OOOX.  ",
" .X12221####X.  ",
" .X13331#OOOX.  ",
" .X14441####X.  ",
" .X11111#OOOX.  ",
" .X#########X.  ",
" .XXXXXXXXXXX.  ",
" 5...........5  "
};
