/* XPM */
static const char *logo_xpm[] = {
/* columns rows colors chars-per-pixel */
"16 16 30 1",
"& c #FF9E9E",
"O c #FF6666",
"1 c #FF9595",
"% c #FF2525",
"+ c #FFCACA",
"  c #FFFFFF",
"$ c #FF1919",
"4 c #FFF6F6",
"= c #FF0D0D",
", c #FF7474",
"q c #FFA3A3",
"9 c #FFD5D5",
"; c #FF5F5F",
"X c #FF5656",
"@ c #FF8585",
"> c #FF4D4D",
"# c #FF1515",
"* c #FF0000",
"2 c #FFDDDD",
"7 c #FFBFBF",
". c #FFB9B9",
"6 c #FFEBEB",
"5 c #FFB3B3",
"< c #FF4343",
"0 c #FF7878",
"8 c #FF3D3D",
": c #FFE2E2",
"- c #FFAAAA",
"3 c #FF6C6C",
"o c #FF3131",
/* pixels */
"  .XooO+   @#$$%",
" &*****=-   ;**#",
":=******=+  :$*$",
"@********>   ,*$",
"X*********+  .*=",
"<*********1  2==",
">*********3  :#$",
",*********O  2=$",
".*********@  .*#",
"4ooO,;$***5  ,*#",
" :+:  6@*o  2#*=",
"  1=o7  5+  ;**#",
"   .X89   63*#1%",
"02        7#*o6o",
"##;&7+.@2  2q96o",
"o#$$$$$$>6    qo"
};
