/* XPM */
static char *about_xpm[] = {
/* columns rows colors chars-per-pixel */
"16 16 117 2",
".  c Black",
"P  c #6FAAF2",
"3  c #9DB2EE",
"=  c #A7BAF0",
"o  c #B1C2F2",
" . c #66B2F7",
"x  c #80AAF0",
"t  c #6489E6",
"O. c #599AEF",
"I  c #72AEF4",
"m  c #80A7EE",
"l  c #7BA3ED",
",  c #9BB2EF",
"&  c #FFFFFF",
"5. c #6CC0FD",
"H  c #5B8EE9",
"q  c #94B1EF",
"6  c #8FAAED",
"$. c #67B6F9",
"+  c #B2C3F2",
"<. c #62ACF3",
"@. c #62ACF6",
"3. c #6DC4FE",
"V  c #75A6EF",
"r  c #92ABED",
"5  c #8DA7EC",
"%  c #D3DCF7",
"^  c #67AAF4",
"v  c #84AFF1",
"C  c #78AAF1",
"J  c #558EEB",
"%. c #D9EDFE",
"k  c #618DE8",
"@  c #A4B8EF",
"X  c #A9BCF0",
"A  c #DEEBFC",
"p  c #C5D7F7",
"{  c #63ADF6",
"1  c #9DB4EF",
"f  c #8CAEEF",
"=. c #5EA3EF",
",. c #5EA3F0",
"4  c #7F99E5",
"U  c #DCEBFC",
"9  c #A0BBF1",
"'  c #5999EF",
">. c #64B1F7",
"(  c #DAEBFD",
"L  c #6DA6F1",
"b  c #83ADF0",
".. c #64AEF6",
"S  c #7CAFF2",
"a  c #C6D8F8",
"w  c #94B0EF",
"4. c #6FC6FF",
"   c None",
"M  c #658FE8",
"i  c #88ABEF",
"O  c #B2C2F2",
"8  c #92B0EF",
"~  c #64A5F2",
")  c #6CB0F5",
"F  c #7AA9F0",
"#. c #65B2F7",
"&. c #65B2F8",
"g  c #8BACEE",
"u  c #86A8EE",
"]  c #5DA1F1",
"o. c #5DA1F2",
"0  c #AEC5F3",
"7  c #90ADEE",
"1. c #68B9FA",
"X. c #60A8F4",
"6. c #72BEFA",
"|  c #D9ECFD",
"2. c #6BC0FD",
"_  c #6AADF4",
"z  c #7DA7EF",
"D  c #7BADF1",
"W  c #538DEA",
"e  c #93AEEE",
"Y  c #74AFF4",
"d  c #8CB0F0",
"2  c #9DB3EE",
":  c #98AFED",
":. c #70BBF9",
"Q  c #5694ED",
"-  c #93A8E9",
"N  c #5D8FE9",
"<  c #E6ECFB",
"$  c #A5B8EF",
"-. c #64B0F7",
"R  c #72A9F1",
"E  c #6DA2EF",
"+. c #5FA6F3",
"/  c #69AEF5",
">  c #99B0EE",
";. c #ECF7FF",
"*. c #62ADF6",
"Z  c #7AAEF2",
"`  c #69A8F3",
"T  c #73ADF3",
"}  c #65B1F7",
"s  c #C7D8F8",
"K  c #699FEF",
"j  c #6388E6",
"!  c #5D9DF0",
"c  c #EFF5FD",
"[  c #60A7F4",
";  c #869EE6",
"#  c #90A6E8",
"*  c #EAEEFB",
"G  c #78A5EF",
"B  c #73A1EE",
"h  c #89A8ED",
"y  c #84A4EC",
"n  c #82AAEF",
/* pixels */
"          . . . . . .           ",
"      . . X o O O + @ . .       ",
"    . # @ $ % & & * = = - .     ",
"  . ; : > , < & & & 1 2 3 4 .   ",
"  . 5 6 7 8 9 9 0 0 q w e r .   ",
". t y u i p a a s s d f g h j . ",
". k l z x c c & & & v b n m M . ",
". N B V C Z A & & & S D F G H . ",
". J K L P I U & & & Y T R E W . ",
". Q ! ~ ^ / ( & & & ) _ ` ! Q . ",
". ' ] [ { } | & & &  ...X.o.O.. ",
"  . +.@.#.$.%.& & & $.&.*.+..   ",
"  . =.-.$.c ;.& & & c :.>.,..   ",
"    . <.1.2.3.4.4.3.5.6.<..     ",
"      . . 2.3.4.4.3.5.. .       ",
"          . . . . . .           "
};
