/* XPM */
static const char *logo_big_xpm[] = {
/* columns rows colors chars-per-pixel */
"64 64 32 1",
"w c #FF6060",
"= c #FF9595",
"+ c #FF5D5D",
"  c #FFFFFF",
"# c #FF8989",
"e c #FFB8B8",
"< c #FF7D7D",
"% c #FF4545",
"6 c #FF0D0D",
"* c #FFEAEA",
"2 c #FFA9A9",
"8 c #FF2D2D",
"9 c #FFD2D2",
"1 c #FF2121",
"5 c #FF5050",
"; c #FF0000",
". c #FFDDDD",
"q c #FFA5A5",
"4 c #FF3535",
"0 c #FF9C9C",
"7 c #FFCECE",
"3 c #FFC5C5",
", c #FF1D1D",
": c #FFF1F1",
"o c #FF8181",
"> c #FF4949",
"& c #FF1111",
"X c #FFB6B6",
"$ c #FFE5E5",
"- c #FF3D3D",
"O c #FF7272",
"@ c #FF6969",
/* pixels */
"              .XoO+++@#X.                  $%&&&&&&&&&&&&&&&&&&&",
"           *=-;;;;;;;;;;;-#$                :>;;;;;;;;;;;;;;;;;;",
"          #,;;;;;;;;;;;;;;;&<*               :>;;;;;;;;;;;;;;;;;",
"        .-;;;;;;;;;;;;;;;;;;;12               :%;;;;;;;;;;;;;;;;",
"       3,;;;;;;;;;;;;;;;;;;;;;;<               *4;;;;;;;;;;;;;;;",
"      3&;;;;;;;;;;;;;;;;;;;;;;;;+               .&;;;;;;;;;;;;;;",
"     .&;;;;;;;;;;;;;;;;;;;;;;;;;;5               2;;;;;;;;;;;;;;",
"     -;;;;;;;;;;;;;;;;;;;;;;;;;;;;@               @;;;;;;;;;;;;;",
"    o;;;;;;;;;;;;;;;;;;;;;;;;;;;;;;=              :1;;;;;;;;;;;;",
"   .6;;;;;;;;;;;;;;;;;;;;;;;;;;;;;;;7              2;;;;;;;;;;;;",
"   +;;;;;;;;;;;;;;;;;;;;;;;;;;;;;;;;8:              -;;;;;;;;;;;",
"  .6;;;;;;;;;;;;;;;;;;;;;;;;;;;;;;;;;<              X;;;;;;;;;;;",
"  <;;;;;;;;;;;;;;;;;;;;;;;;;;;;;;;;;;69              4;;;;;;;;;;",
"  8;;;;;;;;;;;;;;;;;;;;;;;;;;;;;;;;;;;5              0;;;;;;;;;;",
" 9;;;;;;;;;;;;;;;;;;;;;;;;;;;;;;;;;;;;;7             *&;;;;;;;;;",
" #;;;;;;;;;;;;;;;;;;;;;;;;;;;;;;;;;;;;;+              5;;;;;;;;;",
" +;;;;;;;;;;;;;;;;;;;;;;;;;;;;;;;;;;;;;6$             q;;;;;;;;;",
" 8;;;;;;;;;;;;;;;;;;;;;;;;;;;;;;;;;;;;;;#             .;;;;;;;;;",
":,;;;;;;;;;;;;;;;;;;;;;;;;;;;;;;;;;;;;;;-              8;;;;;;;;",
".;;;;;;;;;;;;;;;;;;;;;;;;;;;;;;;;;;;;;;;6.             +;;;;;;;;",
"7;;;;;;;;;;;;;;;;;;;;;;;;;;;;;;;;;;;;;;;;q             o;;;;;;;;",
"3;;;;;;;;;;;;;;;;;;;;;;;;;;;;;;;;;;;;;;;;w             2;;;;;;;;",
"e;;;;;;;;;;;;;;;;;;;;;;;;;;;;;;;;;;;;;;;;-             e;;;;;;;;",
"3;;;;;;;;;;;;;;;;;;;;;;;;;;;;;;;;;;;;;;;;,*            9;;;;;;;;",
"7;;;;;;;;;;;;;;;;;;;;;;;;;;;;;;;;;;;;;;;;;.            9;;;;;;;;",
"9;;;;;;;;;;;;;;;;;;;;;;;;;;;;;;;;;;;;;;;;;3            $6;;;;;;;",
"*&;;;;;;;;;;;;;;;;;;;;;;;;;;;;;;;;;;;;;;;;2            $6;;;;;;;",
" 1;;;;;;;;;;;;;;;;;;;;;;;;;;;;;;;;;;;;;;;;q            .;;;;;;;;",
" >;;;;;;;;;;;;;;;;;;;;;;;;;;;;;;;;;;;;;;;;0            9;;;;;;;;",
" <;;;;;;;;;;;;;;;;;;;;;;;;;;;;;;;;;;;;;;;;0            e;;;;;;;;",
" X;;;;;;;;;;;;;;;;;;;;;;;;;;;;;;;;;;;;;;;;q            q;;;;;;;;",
" *&;;;;;;;;;;;;;;;;;;;;;;;;;;;;;;;;;;;;;;;X            o;;;;;;;;",
"  >;;;;;;;;;;;;;;;;;;;;;;;;;;;;;;;;;;;;;;;3            5;;;;;;;;",
"  0;;;;;;;;;;;;;;;;;;;;;;;;;;;;;;;;;;;;;;6$            8;;;;;;;;",
"  *&;;;;;;;;;;;;;;;;;;;;;;;;;;;;;;;;;;;;;1:           .;;;;;;;;;",
"   +;;;;;;;;;;;;;;;;;;;;;;;;;;;;;;;;;;;;;>            0;;;;;;;;;",
"   7;;;;;;;;;;;;;;;;;;;;;;;;;;;;;;;;;;;;;o            >;;;;;;;;;",
"    %;;;;;;;;;;;;;;;;;;;;;;;;;;;;;;;;;;;;3           $6;;;;;;;;;",
"    e;;;;;;6-w=2e3ee0<>,;;;;;;;;;;;;;;;;8            =;;;;;;;;;;",
"     >;;&+q$           :ew,;;;;;;;;;;;;;o            8;;;;;;;;;;",
"     38o$                 *#1;;;;;;;;;;6$           2;;;;;;;;;;;",
"                            *<;;;;;;;;;@            4;;;;;;;;;;;",
"                              74;;;;;;&$           q;;;;;;;;;;;;",
"        :.X=#0e$                @;;;;;0           :,;;;;;;;;;;;;",
"        26;;;;;6%0:              0;;;5            @;;;;;;;;;;;;;",
"         O;;;;;;;;10              X;1*           X;;;;;;;;;;;;;;",
"          o;;;;;;;;;%9             e7           .&;;;;;;;;;;;;;;",
"           2,;;;;;;;;,X                        *4;;;;;;;;;;;;;;;",
"            $w;;;;;;;;;0                       %;;;;;;;;;O0;;;;;",
"              7+6;;;;;;;o                    :5;;;;;;;;83  ,;;;;",
"                $=>,;;;;;<                  *%;;;;;;;;;-   w;;;;",
"                   :7X0#q3                 78;;;;;;;;;;6$  2;;;;",
"#                                         #6;;;;;;;;;;;6.  .;;;;",
"&%.                                      *8;;;;;;;;;;;;6*  :1;;;",
"&;6o:                                     *+;;;;;;;;;;;>    4;;;",
"&;;;80:                                     q8;;;;;;;;&9    %;;;",
"&;;;;;8#$                                    :04;;;;;-7     -;;;",
"&;;;;;;;650.                  .e                9q#=3       1;;;",
"&;;;;;;;;;;64@03$:       :.Xo%6;q                          $6;;;",
"&;;;;;;;;;;;;;;;6,8-%%%-4,6;;;;;67                         2;;;;",
"&;;;;;;;;;;;;;;;;;;;;;;;;;;;;;;;;1$                        5;;;;",
"&;;;;;;;;;;;;;;;;;;;;;;;;;;;;;;;;;4*                      7;;;;;",
"6;;;;;;;;;;;;;;;;;;;;;;;;;;;;;;;;;;4$                     %;;;;;",
"1&&&&&&&&&&&&&&&&&&&&&&&&&&&&&&&&&&&-.                   #&&&&&&"
};
