/* XPM */
static char *new_xpm[] = {
/* columns rows colors chars-per-pixel */
"16 16 7 1",
". c Black",
"+ c #D9D9D9",
"O c #6F8C9C",
"@ c #8FA7D1",
"o c #FFFFFF",
"X c #CCCC99",
"  c None",
/* pixels */
"                ",
"    ......      ",
"    .X.ooo.     ",
"   O.X.o+++.    ",
"   .X.@++@@+....",
"   .X.o+@@@@ooo.",
"  O.X.++@@@@++@.",
"  .X.@++@@@+++.O",
"  .X.o@@@@@+++. ",
" O.X....@@@++@. ",
" .X.    .@+++.O ",
" .X.     .@@@.  ",
"O.X.      ....  ",
".X.             ",
".X.             ",
"                "
};
