/* XPM */
static char *new_xpm[] = {
/* columns rows colors chars-per-pixel */
"16 16 51 1",
"O c #AEB45E",
"% c #D3D818",
"< c #A6AE05",
"h c #CED42C",
"2 c #CCD41D",
"0 c #C9D041",
"o c #C0CC19",
"i c #D6DC45",
"- c #ACB004",
", c #8B941B",
"s c #BBC228",
"z c #BFBC52",
"f c #BDBC63",
"9 c #B8C307",
"w c #92A00B",
"a c #999E14",
"v c #A5AC4D",
"c c #949A22",
"x c #AAAD46",
"# c #9EA22C",
"r c #DDE250",
"  c None",
"t c #98A505",
": c #C8D009",
"4 c #A1A323",
"; c #D7DC0F",
"8 c #CBD416",
"p c #8C9402",
"7 c #DAE02F",
"e c #808C00",
"6 c #B7C137",
"j c #AAA92C",
"3 c #A0A435",
"l c #BEBC47",
"y c #88910E",
"d c #909C06",
"& c #D9DE1D",
". c #778500",
"u c #CCD53A",
"5 c #D9DE22",
"1 c #BBC008",
"k c #9CA124",
"g c #909605",
"+ c #979D28",
"$ c #BDC030",
"> c #B4BC08",
"q c #CDD623",
"X c #7D8D02",
"* c #D3D809",
"@ c #878F0B",
"= c #ABB808",
/* pixels */
"         ..     ",
"         XoX    ",
"     O+...oo.   ",
"    @#$%&&*=o.  ",
"   @-;:::::>=oX ",
"  ,<**::::1==>2.",
" 345;:::>>>==2. ",
" @6789::::5=2.  ",
" .0qwe....22.   ",
" .rty    .2X    ",
" .ue     ..     ",
" .ip            ",
" asd            ",
" fghj           ",
"   klz          ",
"    xcv         "
};
