/* XPM */
static char *new_xpm[] = {
/* columns rows colors chars-per-pixel */
"16 16 49 1",
"O c #AEB45E",
"% c #D3D818",
"< c #A6AE05",
"f c #CED42C",
"2 c #CCD41D",
"9 c #C9D041",
"o c #C0CC19",
"u c #D6DC45",
"- c #ACB004",
", c #8B941B",
"a c #BBC228",
"k c #BFBC52",
"8 c #B8C307",
"q c #92A00B",
"p c #999E14",
"x c #A5AC4D",
"z c #949A22",
"l c #AAAD46",
"# c #9EA22C",
"e c #DDE250",
"  c None",
"r c #98A505",
": c #C8D009",
"3 c #A1A323",
"; c #D7DC0F",
"7 c #CBD416",
"i c #8C9402",
"6 c #DAE02F",
"w c #808C00",
"5 c #B7C137",
"g c #AAA92C",
"j c #BEBC47",
"t c #88910E",
"s c #909C06",
"& c #D9DE1D",
". c #778500",
"y c #CCD53A",
"4 c #D9DE22",
"1 c #BBC008",
"h c #9CA124",
"d c #909605",
"+ c #979D28",
"$ c #BDC030",
"> c #B4BC08",
"0 c #CDD623",
"X c #7D8D02",
"* c #D3D809",
"@ c #878F0B",
"= c #ABB808",
/* pixels */
"         ..     ",
"         XoX    ",
"     O+...oo.   ",
"    @#$%&&*=o.  ",
"   @-;:::::>=oX ",
"  ,<**::::1==>2.",
" O34;:::>>>==2. ",
" @5678::::4=2.  ",
" .90qw....22.   ",
" .ert    .2X    ",
" .yw     ..     ",
" .ui            ",
" pas            ",
"  dfg           ",
"   hjk          ",
"    lzx         "
};
