/* XPM */
static const char *windowmode_xpm[] = {
/* columns rows colors chars-per-pixel */
"16 16 35 1",
"2 c #CDD7E2",
"y c #AFB0AE",
"- c #567EB1",
"; c #9EB3CF",
"O c #F0F0EE",
"< c #BCCBDC",
"X c #FFFFFF",
"= c #7997BF",
"  c #B7B8B5",
"4 c #F8F8F7",
"q c #9DB4D1",
"w c #6E90BC",
"r c #F9F9F9",
"8 c #A5B9D4",
"o c #3364A3",
". c #878984",
"0 c #8AA5C9",
"5 c #8FA9CA",
"@ c #5B81B2",
"$ c #4A75AD",
"t c #B2B3B0",
", c #C9D3E0",
"3 c #D3DBE6",
"9 c #668AB8",
": c #B8C7D8",
"* c #98AFCC",
"6 c #B6C7DB",
"# c #F4F4F2",
"+ c #426FA9",
"7 c #DAE1EA",
"& c #A1B5CF",
"1 c #C7D2DF",
"e c #3A69A6",
"> c #CAD6E4",
"% c #829EC2",
/* pixels */
" .............. ",
".XXXXXXXXXXXXXX.",
".XooooOOOOooooX.",
".XoooOOOOOOoooX.",
".Xoo+@OO#O$+ooX.",
".XoO@%&OO*=-#oX.",
".XOOO;:>,<;###X.",
".X####1##>####X.",
".X####2#X3X#4#X.",
".X##45637>844XX.",
".Xo4$904#qw$XoX.",
".Xooe+X#Xr+oooX.",
".XoooX##X#XoooX.",
".XooooXXXXooooX.",
".XXXXXXXXXXXXXX.",
"t..............y"
};
