/* XPM */
static char *windowmode_xpm[] = {
/* columns rows colors chars-per-pixel */
"16 16 27 1",
". c Black",
"> c #D2E4FF",
"* c #F0F6FF",
"% c #416ADD",
"# c #4775E2",
"< c #CEE1FF",
"3 c #62ACF5",
": c #DDEAFF",
"o c #65B3F8",
"+ c #5898EE",
"@ c #5087E8",
"4 c #5B9FF1",
"6 c #4B7DE5",
"= c #EDF4FF",
"- c #E6F0FF",
"5 c #548FEB",
"2 c #67B8F9",
"O c #5FA7F3",
"  c None",
"1 c #6BC0FC",
"$ c #436EDF",
"8 c #C6DDFF",
"; c #E4EFFF",
"X c #6ABEFA",
", c #D8E7FF",
"& c #F6F9FF",
"7 c #CADFFF",
/* pixels */
"                ",
"...........     ",
".XXoO+@#$%.     ",
".XXoO+@#$$.     ",
".&*==--;;;.     ",
".&-;;:::>>.     ",
".&::,...........",
".&>><.123456$$%.",
".&&&&.123456$$$.",
"......&==---;;&.",
"     .&;;;::>>&.",
"     .&:,>>><7&.",
"     .&><<7888&.",
"     .&&&&&&&&&.",
"     ...........",
"                "
};
